<?xml version="1.0" encoding="UTF-8"?>
<svg id="Layer_4_copy" data-name="Layer 4 copy" xmlns="http://www.w3.org/2000/svg" viewBox="0 0 1920 1080">
  <defs>
    <style>
      .cls-1 {
        fill: #fff;
      }
    </style>
  </defs>
  <path class="cls-1" d="M0,0H1920V31c-153.73,0-308.08-4.18-461.69,2.22-117.26,4.89-234.05,5.19-351.31,.23-112.07-4.74-224.36-2.46-336.51-2.46H0V0Z"/>
  <path class="cls-1" d="M0,21.18H770.49c229.26,0,458.68,6.65,687.86,.98,153.76-3.8,307.84-.98,461.64-.98v30.43c-153.5,0-308.8-7.08-461.83,6.13-118.21,10.2-233.11,10.85-351.32,.48-111.87-9.82-224.15-6.61-336.35-6.61H0V21.18Z"/>
  <path class="cls-1" d="M0,42.35H770.49c112.16,0,224.47-2.84,336.43,4.54,117.64,7.76,233.68,7.27,351.32-.36,153.34-9.95,308.15-4.18,461.76-4.18v29.86c-153.28,0-309.92-9.95-462.03,11.4-60.04,8.43-119.46,16.8-180.21,16.76-57.67-.03-114.15-7.83-171.12-15.98-111.67-15.98-223.61-12.18-336.15-12.18H0C0,62.26,0,52.31,0,42.35Z"/>
  <path class="cls-1" d="M0,63.53H770.49c112.35,0,224.49-3.58,336.24,9.69,57.1,6.78,113.67,12.9,171.23,12.9,60.56,0,120.01-6.53,180.09-13.55,152.54-17.8,308.58-9.04,461.94-9.04v29.29c-153.21,0-311.36-12.68-462.26,17.53-59.73,11.96-119.3,25.2-180.52,25.06-57.93-.13-114.34-12.38-170.83-23.95-111.54-22.85-222.61-18.64-335.91-18.64H0v-29.29Z"/>
  <path class="cls-1" d="M0,84.71H770.49c112.94,0,224.42-4.06,336,16.02,56.71,10.21,113.12,20.64,170.94,20.73,61.03,.09,120.51-11.16,180.39-21.7,151.4-26.67,308.95-15.04,462.16-15.04v28.73h-244.92c-36.77,0-74.1-1.79-110.71,2.13-36.23,3.88-71.69,12.67-106.87,21.9-59.12,15.51-119.14,34.06-180.84,33.81-58.24-.24-114.77-17.33-170.51-32.35-55.56-14.97-109.39-25.49-167.09-25.49H0v-28.73Z"/>
  <path class="cls-1" d="M0,105.88H939.05c57.46,0,111.49,9.28,167.19,22.97,56.04,13.77,112.51,29.06,170.63,29.26,61.53,.21,121.35-16.37,180.72-30.59,35.22-8.43,70.68-16.43,106.79-19.85,36.65-3.47,73.92-1.79,110.7-1.79h244.92v28.16h-244.92c-36.77,0-74.24-2.11-110.74,3.02-36.57,5.14-72.02,16.05-107.07,27.38-58.31,18.85-118.96,42.78-181.16,42.41-58.58-.35-115.39-22.32-170.21-40.6-55.12-18.39-108.43-32.21-166.84-32.21H0v-28.16Z"/>
  <path class="cls-1" d="M0,127.06H939.05c58.17,0,111.64,12.72,166.93,29.98,55.14,17.21,111.85,37.55,170.31,37.86,62.03,.33,122.45-21.8,181.06-39.55,35.1-10.63,70.55-20.83,107.01-25.56,36.54-4.73,73.96-2.73,110.73-2.73h244.92v27.59h-244.92c-36.76,0-74.4-2.41-110.77,3.76-36.93,6.26-72.36,19.15-107.26,32.4-57.47,21.82-118.7,50.72-181.45,50.25-59.01-.44-116.05-26.92-169.93-48.12-54.66-21.5-107.42-38.28-166.62-38.28H0v-27.59Z"/>
  <path class="cls-1" d="M0,148.24H939.05c58.95,0,111.89,15.92,166.68,36.49,54.16,20.34,111.14,45.48,170.01,45.9,62.57,.44,123.64-26.98,181.37-47.92,34.95-12.68,70.38-24.97,107.2-30.91,36.41-5.87,74-3.55,110.76-3.55h244.92v27.02h-244.92c-36.73,0-74.55-2.69-110.79,4.22-37.28,7.11-72.67,21.7-107.41,36.58-56.79,24.32-118.3,57.25-181.69,56.72-59.55-.5-116.59-30.67-169.7-54.32-54.28-24.18-106.41-43.19-166.44-43.19H0v-27.02Z"/>
  <path class="cls-1" d="M0,169.41H939.05c59.79,0,112.12,18.48,166.48,41.95,53.3,23.01,110.37,52.24,169.76,52.73,63.2,.52,124.68-31.4,181.63-55.06,34.79-14.45,70.19-28.6,107.37-35.5,36.28-6.73,74.04-4.12,110.78-4.12h244.92v26.45h-244.92c-36.64,0-74.69-2.97-110.79,4.27-37.59,7.53-72.95,23.46-107.52,39.56-56.48,26.3-117.67,61.77-181.86,61.23-60.23-.51-116.85-33.02-169.54-58.62-54.13-26.3-105.47-46.43-166.32-46.43H0v-26.45Z"/>
  <path class="cls-1" d="M0,190.59H939.05c60.64,0,112.2,19.98,166.34,45.79,52.75,25.15,109.53,57.22,169.57,57.73,63.97,.55,125.31-34.45,181.82-60.29,34.61-15.83,69.98-31.46,107.5-38.93,36.14-7.2,74.12-4.3,110.79-4.3h244.92v25.88c-81.64,0-163.28,0-244.92,0-36.49,0-74.8-3.24-110.77,3.79-37.82,7.4-73.17,24.14-107.58,40.95-56.73,27.72-116.8,63.64-181.93,63.16-61.05-.45-116.68-33.45-169.47-60.42-54.36-27.77-104.64-47.48-166.28-47.49-56.19,0-112.37,0-168.56,0-256.83,0-513.66-.01-770.49,0v-25.88Z"/>
  <path class="cls-1" d="M0,211.76H939.05c61.46,0,112.01,19.97,166.28,47.46,52.72,26.71,108.63,59.79,169.48,60.26,64.9,.5,125.31-35.53,181.92-62.98,34.44-16.7,69.79-33.31,107.57-40.79,36-7.13,74.25-3.95,110.78-3.95h244.92v25.31c-82.52,1.38-164.99-1.86-247.5-2.61-36.22-.33-74.73-3.19-110.44,3.65-38.06,7.29-73.44,24.77-107.73,42.18-56.87,28.87-116.27,65.53-182.17,64.83-61.39-.65-115.98-33.42-168.73-61.2-54.6-28.75-104.12-47.55-166.28-48.16-55.28-.54-110.57-.67-165.86-.26-120.38,.9-240.7,5.51-361.09,5.3C273.48,240.58,136.7,235.96,0,237.08v-25.31Z"/>
  <path class="cls-1" d="M0,232.94c136.54-1.08,273.17,2.32,409.73,2.67,120.46,.31,240.87-3.25,361.32-3.89,55.56-.29,111.11-.16,166.67,.32,62.09,.53,111.77,19.42,166.39,47.96,52.82,27.6,107.61,60.33,168.97,60.95,65.74,.67,125.23-35.7,182.1-64.3,34.31-17.25,69.68-34.54,107.69-41.81,35.74-6.83,74.18-3.95,110.42-3.72,82.25,.51,164.46,3.01,246.72,1.82v24.75c-84.5,1.75-168.71-5.75-253.11-8.28-36.3-1.09-75.32-4.12-111.11,3.03-38.42,7.68-73.86,26.36-108.06,44.78-56.65,30.5-115.96,69.52-182.68,68.76-61.33-.7-114.92-34.25-166.94-63-54.12-29.9-102.73-48.82-164.99-49.58-53.37-.65-106.75-.51-160.12,.76-119.7,2.85-239.07,13.43-358.83,14.6-138.34,1.35-275.95-11.49-414.16-11.06v-24.75Z"/>
  <path class="cls-1" d="M0,254.12c137.87-.63,275.34,10.53,413.3,9.57,119.9-.83,239.48-10.3,359.34-12.74,53.76-1.1,107.53-1.17,161.3-.51,62.26,.76,111.04,19.6,165.29,49.29,52.19,28.57,105.95,61.92,167.31,62.63,66.57,.76,125.86-37.74,182.57-67.94,34.21-18.22,69.64-36.66,108-44.24,35.76-7.07,74.67-4.1,110.93-3.17,84.01,2.16,167.87,8.86,251.95,7.11v24.18c-87.36,1.29-173.98-11.2-261.04-16.3-36.66-2.15-76.38-5.83-112.53,2.05-38.89,8.47-74.4,28.7-108.53,48.42-56.14,32.44-115.83,75.12-183.39,74.41-60.99-.64-113.58-35.76-164.35-65.58-53.05-31.17-100.65-51.03-162.71-51.58-50.71-.46-101.41,.27-152.06,2.76-118.62,5.83-236.31,23.21-355.06,26.95-60.88,1.92-122.5,2.4-183.15-3.77-79.24-8.06-157.36-16.71-237.18-17.35v-24.18Z"/>
  <path class="cls-1" d="M0,275.29c79.23,.49,156.99,8.65,235.73,16,60.82,5.68,122.57,5.21,183.59,3.52,118.91-3.31,236.89-19.67,355.68-25,51.09-2.29,102.22-2.92,153.35-2.42,62.1,.61,109.86,20.28,163.09,51.26,50.98,29.66,103.71,64.51,164.77,65.17,67.44,.72,127.05-41.35,183.28-73.5,34.14-19.52,69.64-39.5,108.46-47.84,36.08-7.75,75.69-4.19,112.29-2.21,86.63,4.68,172.87,16.41,259.77,15.01v23.61c-90.87,.2-180.34-17.73-270.57-25.94-37.24-3.39-77.72-8.09-114.47,.81-39.43,9.55-75.02,31.57-109.09,52.79-55.38,34.5-115.82,81.82-184.25,81.26-60.48-.5-112.08-37.76-161.21-68.71-51.55-32.47-98.1-53.89-159.76-53.98-47.53-.07-95.02,1.45-142.39,5.43-117.24,9.86-232.73,34.32-350.24,41.43-60.17,3.64-120.78,4.31-180.38-5.6C164.82,312.62,84.27,300.7,0,298.9v-23.61Z"/>
  <path class="cls-1" d="M0,296.47c83.71,1.65,163.98,13.21,246.36,26.23,59.71,9.44,120.46,8.79,180.69,5.37,117.67-6.68,233.43-30.31,350.85-39.64,47.78-3.8,95.67-5.21,143.59-5.09,61.72,.16,108.39,21.36,160.13,53.68,49.34,30.82,101.06,67.8,161.6,68.32,68.33,.59,128.67-46.15,184.15-80.4,34.08-21.04,69.65-42.84,109.02-52.25,36.67-8.76,77.06-4.2,114.22-.96,89.84,7.82,178.96,25.09,269.39,24.74v23.04c-94.76-1.29-187.31-24.85-280.99-36.47-37.97-4.71-79.19-10.69-116.71-.58-40.02,10.79-75.67,34.74-109.7,57.57-54.48,36.54-115.9,89.15-185.19,88.77-59.88-.33-110.49-40.08-157.76-72.13-49.75-33.74-95.29-57.13-156.42-56.6-44.11,.39-88.07,2.81-131.83,8.48-115.64,14.98-228.62,46.21-344.85,57.08-59.93,5.6-119.13,6.64-177.93-7.55-86.42-20.87-169.26-35.5-258.62-38.55,0-9.22,0-13.82,0-23.04Z"/>
  <path class="cls-1" d="M0,317.65c88.88,2.93,171.52,17.35,257.62,37.53,58.86,13.79,118.21,12.79,178.14,7.38,116.35-10.52,229.55-41.17,345.35-55.64,44.09-5.51,88.38-7.85,132.81-8.19,61.19-.47,106.81,22.73,156.73,56.36,47.44,31.95,98.14,71.47,158.07,71.82,69.21,.4,130.54-51.72,185.11-88.07,34.03-22.68,69.68-46.45,109.64-57.13,37.45-10,78.59-4.14,116.5,.45,93.37,11.31,185.64,34.36,280.03,35.5v22.47c-98.76-2.93-194.42-32.09-291.59-47.19-38.74-6.02-80.66-13.4-119-1.99-40.61,12.1-76.32,38-110.32,62.42-53.52,38.46-116.01,96.6-186.15,96.41-59.31-.16-108.89-42.51-154.24-75.62-47.84-34.92-92.43-60.49-153.02-59.26-40.7,.83-81.05,4.15-121.1,11.59-113.79,21.15-224.32,58.3-339.34,72.96-59.96,7.64-117.53,9.27-175.53-9.54-30.92-10.03-61.24-21.24-92.94-28.79-57.99-13.81-117.39-18.33-176.78-21.01v-22.47Z"/>
  <path class="cls-1" d="M0,338.82c59.13,2.62,118.25,7.1,176.02,20.7,31.69,7.46,62.05,18.53,93.01,28.4,58.06,18.51,115.73,16.93,175.68,9.41,115.1-14.42,225.77-51.25,339.68-71.97,40.28-7.33,80.85-10.6,121.76-11.4,60.62-1.18,105.27,24.25,153.23,59.1,45.47,33.04,95.12,75.23,154.46,75.4,70.09,.2,132.5-57.59,186.09-95.93,34-24.33,69.7-50.11,110.28-62.12,38.29-11.34,80.16-4.04,118.86,1.9,96.95,14.89,192.43,43.7,290.94,46.53v21.9c-102.59-4.43-201.21-38.97-301.65-57.36-39.43-7.22-82.02-15.96-121.11-3.31-41.19,13.33-76.94,41.09-110.91,67.03-52.62,40.19-116.08,103.69-187.05,103.65-58.85-.03-107.38-44.84-150.92-78.92-46-36-89.72-63.66-149.84-61.79-37.57,1.17-74.42,5.26-110.9,14.49-111.58,28.23-220.21,69.98-334.19,88.13-59.94,9.54-116.03,11.99-172.95-11.44-30.38-12.51-59.98-25.84-91.73-34.75C127.3,369.21,63.47,364.08,0,360.73,0,351.96,0,347.58,0,338.82Z"/>
  <path class="cls-1" d="M0,360c63.33,3.34,127,8.44,188.34,25.57,31.75,8.87,61.38,22.13,91.78,34.55,56.96,23.27,113.1,20.86,173.05,11.38,114.01-18.04,222.69-59.66,334.36-87.62,36.6-9.17,73.57-13.24,111.24-14.39,60.13-1.85,103.88,25.74,149.94,61.71,43.6,34.05,92.16,78.78,151.03,78.81,70.94,.04,134.37-63.28,187.02-103.41,33.96-25.89,69.72-53.59,110.89-66.88,39.07-12.61,81.64-3.92,121.05,3.27,100.34,18.28,198.85,52.64,301.32,57.02v21.33c-105.98-5.48-207.19-45.02-310.46-66.27-39.94-8.22-83.13-18.1-122.82-4.44-41.71,14.36-77.51,43.81-111.42,71.08-51.86,41.69-116.06,109.9-187.85,109.96-58.59,.05-106.01-46.81-148.02-81.8-44.46-37.03-87.34-66.32-147.19-64.01-34.96,1.35-68.66,5.94-101.96,16.85-108.92,35.71-216.77,80.64-329.84,101.65-59.52,11.06-114.69,14.53-169.93-13.17-29.64-14.86-58.36-30-90.16-40.07C135.64,390.61,67.36,385.19,0,381.33v-21.33Z"/>
  <path class="cls-1" d="M0,381.18c67.34,3.85,135.58,9.27,200.26,29.75,31.8,10.07,60.52,25.19,90.17,40.04,55.26,27.67,110.43,24.21,169.95,13.16,113.08-20.99,220.94-65.9,329.87-101.56,33.32-10.91,67.04-15.49,102.02-16.84,59.85-2.31,102.74,26.97,147.2,64,42.02,34.99,89.45,81.83,148.04,81.78,71.78-.06,135.97-68.23,187.84-109.92,33.91-27.25,69.71-56.7,111.42-71.05,39.69-13.65,82.87-3.79,122.81,4.43,103.25,21.23,204.45,60.74,310.4,66.21v20.76c-108.63-5.74-211.92-49.76-317.31-73.19-40.18-8.93-83.87-19.53-123.89-5.25-42.16,15.05-77.99,45.92-111.82,74.23-51.35,42.96-115.86,114.75-188.47,114.8-58.6,.05-104.9-48.15-145.81-84.02-43.45-38.09-85.46-68.14-145.37-65.74-33.07,1.33-64.19,6.03-94.98,18.39-105.99,42.56-214.46,89.66-326.78,112.58-58.39,11.91-113.45,16.61-166.23-14.63-28.65-16.96-56.29-33.44-88.01-44.39C143.61,411.34,70.96,406.02,0,401.94v-20.76Z"/>
  <path class="cls-1" d="M0,402.35c71.03,4.08,143.77,9.39,211.55,32.83,31.72,10.97,59.34,27.47,87.96,44.47,52.72,31.3,107.78,26.58,166.14,14.66,112.3-22.94,220.8-70.08,326.73-112.76,30.75-12.39,61.82-17.09,94.87-18.41,59.92-2.4,101.91,27.66,145.35,65.77,40.89,35.88,87.17,84.1,145.77,84.05,72.62-.06,137.13-71.9,188.48-114.88,33.83-28.33,69.66-59.23,111.83-74.28,40.02-14.29,83.72-3.68,123.9,5.26,105.42,23.47,208.75,67.57,317.42,73.31v20.2c-110.24-4.85-214.94-52.71-321.47-77.4-40.05-9.28-84.09-20-124.08-5.64-42.51,15.26-78.36,47.2-112.07,76.18-51.17,43.98-115.43,117.72-188.85,117.65-58.94-.06-104.11-48.61-144.51-85.33-43.19-39.26-84.28-68.8-144.7-66.81-32,1.05-61.51,5.35-90.69,18.81-45.7,21.07-91.62,39.7-138.62,57.86-61.11,23.6-122.52,48.56-186.83,62.11-56.24,11.85-112.22,17.95-161.59-15.72-27.33-18.65-53.66-35.9-85.08-47.35C151.02,431.22,74.17,426.51,0,422.55v-20.2Z"/>
  <path class="cls-1" d="M0,423.53c74.31,3.94,151.35,8.61,221.96,34.38,31.4,11.46,57.66,28.73,84.92,47.45,49.18,33.76,105.23,27.58,161.34,15.76,64.32-13.55,125.73-38.57,186.83-62.21,47.01-18.19,92.93-36.85,138.61-58,29.14-13.49,58.59-17.76,90.57-18.79,60.45-1.95,101.5,27.52,144.7,66.84,40.4,36.77,85.51,85.31,144.48,85.37,73.45,.08,137.69-73.71,188.86-117.73,33.71-29,69.56-60.97,112.08-76.23,39.98-14.35,84.03-3.64,124.07,5.65,106.56,24.72,211.31,72.76,321.59,77.52v19.63c-110.61-4.92-216.09-52.73-323.05-77.42-40.01-9.24-83.82-19.96-123.78-5.65-42.47,15.21-78.21,47.16-111.79,76.2-51.25,44.31-114.85,117.52-188.51,117.71-59.23,.15-104.16-48.64-144.53-85.69-43.43-39.85-83.95-68.59-144.77-67.12-31.78,.77-60.91,4.7-89.78,18.35-45.86,21.7-91.96,40.71-139.28,59.21-60.88,23.79-122.07,49.02-186.25,62.51-56.04,11.79-112.49,17.88-161.69-15.66-27.36-18.65-53.67-35.97-85.11-47.47C151.01,452.35,74.17,447.6,0,443.64v-20.11Z"/>
  <path class="cls-1" d="M0,445.34c73.95,3.99,150.48,8.81,220.73,34.45,31.47,11.48,57.88,28.78,85.36,47.32,49.46,33.38,105.86,27.39,162.07,15.56,64.14-13.5,125.29-38.68,186.14-62.45,47.35-18.5,93.47-37.55,139.38-59.21,28.89-13.64,58.04-17.58,89.83-18.33,60.83-1.45,101.34,27.3,144.78,67.15,40.38,37.04,85.36,85.91,144.6,85.72,73.62-.23,137.16-73.3,188.4-117.58,33.56-29.01,69.27-60.9,111.71-76.11,39.98-14.32,83.75-3.58,123.79,5.64,107.02,24.64,212.58,72.17,323.22,77.22v19.06c-111.31-6.02-218.29-49.84-326.53-73.33-40.28-8.74-83.99-19.59-124.1-5.27-41.82,14.92-77.05,45.9-110.23,74.37-50.96,43.73-113.41,114.51-186.22,115.06-59.5,.45-105.24-49.4-145.85-86.44-43.74-39.89-84.4-69.07-145.5-67.71-32.27,.72-61.92,4.84-91.42,18.26-103.79,47.24-212.9,96.9-324.91,120.75-57.66,12.28-113.64,17.19-165.89-13.7-28.71-16.97-56.31-33.67-88.05-44.78C143.65,477.3,70.99,471.87,0,467.77v-22.43Z"/>
  <path class="cls-1" d="M0,470.42c70.64,4.1,142.85,9.56,210.21,32.98,31.76,11.04,59.47,27.64,88.31,44.42,52.51,30.55,108.46,25.74,166.22,13.43,112-23.87,220.93-73.58,324.81-120.62,29.6-13.4,59.33-17.55,91.69-18.26,61.14-1.36,101.85,27.9,145.64,67.8,40.66,37.06,86.49,87.01,146.04,86.55,72.69-.56,134.99-71.03,185.89-114.67,33.12-28.39,68.28-59.25,110.01-74.11,40.11-14.29,83.85-3.46,124.15,5.21,108.42,23.31,215.6,66.69,327.03,72.75v18.49c-112.69-5.95-221.99-45.23-332.25-66.63-40.45-7.85-84.65-18.45-124.78-4.48-40.81,14.22-75.25,43.87-107.71,71.41-50.31,42.69-110.95,110.03-182.35,110.51-60.13,.4-106.87-50.48-148.07-87.77-44.3-40.08-85.54-70.1-147.25-68.76-33.31,.72-64.15,5.1-94.83,18.39-104.48,45.26-211.87,95.35-323.69,119.39-58.21,12.51-114.14,16.66-168.53-10.56-29.74-14.88-58.39-30.39-90.21-40.72-64.62-20.98-132.92-26.58-200.33-30.47v-24.28Z"/>
  <path class="cls-1" d="M0,498.37c66.93,3.84,134.64,9.44,198.85,30.03,31.82,10.21,60.59,25.52,90.45,40.11,54.61,26.69,110.56,22.61,168.78,10.09,111.78-24.05,218.93-74.23,323.5-119.19,30.87-13.27,61.9-17.7,95.39-18.42,61.81-1.35,103.15,28.8,147.54,68.92,41.31,37.33,88.18,88.36,148.42,87.98,71.18-.45,131.55-67.28,181.75-109.81,32.34-27.4,66.66-56.86,107.32-70.96,40.12-13.91,84.43-3.36,124.89,4.35,110.56,21.07,220.21,59.73,333.12,65.6v17.92c-114.63-4.99-226.8-39.36-339.59-58.01-40.55-6.7-85.63-16.77-125.72-3.37-39.54,13.21-72.98,41.29-104.48,67.62-49.41,41.3-107.76,104.47-177.31,104.58-61.04,.1-108.89-51.81-150.96-89.52-45.05-40.39-87.18-71.52-149.75-70.13-34.8,.77-67.25,5.5-99.56,18.69-105.05,42.9-210.63,93.57-322.05,117.74-58.03,12.59-114.27,16.33-170.03-6.56-30.5-12.52-60.02-26.38-91.8-35.65C127.39,532.47,63.55,527.07,0,523.67v-25.3Z"/>
  <path class="cls-1" d="M0,528.38c62.92,3.31,126.06,8.64,186.88,26.04,31.77,9.09,61.41,22.65,92.01,34.79,55.91,22.17,112.22,18.46,170.18,5.87,111.33-24.18,216.65-74.94,321.76-117.47,32.59-13.19,65.33-17.97,100.39-18.75,62.73-1.4,105.01,29.93,150.2,70.37,42.22,37.79,90.25,89.86,151.46,89.83,69.24-.04,127.19-62.49,176.44-103.55,31.34-26.12,64.6-53.94,103.92-66.97,40.09-13.29,85.32-3.33,125.89,3.17,113.23,18.17,225.89,51.74,340.86,56.51v17.35c-116.95-3.45-232.31-32.69-347.98-48.16-40.67-5.44-86.73-14.72-126.83-2.07-38.1,12.02-70.39,38.35-100.8,63.3-48.36,39.69-104.1,98.19-171.54,97.77-62.14-.39-111.15-53.28-154.27-91.55-45.92-40.76-89.14-73.2-152.73-71.72-36.55,.85-70.91,5.94-105.11,19.1-105.34,40.54-209.34,91.73-320.13,115.92-57.49,12.55-114.25,16.26-170.8-2.01-31.06-10.03-61.3-21.93-93.02-29.96C118.89,561.57,59.49,556.68,0,553.95v-25.57Z"/>
  <path class="cls-1" d="M0,559.65c58.72,2.59,117.31,7.36,174.55,21.4,31.71,7.78,62.07,19.29,93.22,28.86,56.64,17.4,113.51,13.67,170.89,1.13,110.66-24.19,214.4-75.46,319.76-115.57,34.56-13.16,69.29-18.31,106.19-19.18,63.79-1.49,107.23,31.19,153.32,72.03,43.32,38.38,92.56,91.45,154.91,91.94,67.02,.53,122.26-57.07,170.42-96.45,30.2-24.69,62.27-50.67,100.09-62.47,40.12-12.51,86.35-3.39,127.05,1.81,116.22,14.85,232.19,43.13,349.6,46.26v16.78c-119.51-1.64-238.13-25.69-356.81-37.8-40.86-4.17-87.79-12.53-128.02-.68-36.57,10.77-67.66,35.25-96.93,58.76-47.26,37.97-100.26,91.58-165.44,90.57-63.32-.98-113.51-54.79-157.76-93.69-46.84-41.17-91.24-74.98-155.92-73.4-38.43,.94-74.83,6.38-111.02,19.54-105.39,38.35-208.07,89.85-318.1,114.02-56.9,12.5-114.29,16.47-171.25,2.78-31.49-7.56-62.36-17.32-94.08-23.98C110.39,590.92,55.34,586.75,0,584.79,0,574.73,0,569.68,0,559.65Z"/>
  <path class="cls-1" d="M0,591.36c54.45,1.79,108.59,5.8,162.08,16.53,31.74,6.37,62.74,15.66,94.31,22.71,57.03,12.74,114.56,8.69,171.35-3.81,109.86-24.17,212.29-75.7,317.67-113.62,36.61-13.17,73.44-18.68,112.27-19.64,64.91-1.6,109.57,32.5,156.6,73.76,44.49,39.03,94.93,93.03,158.5,94.14,64.7,1.13,117.11-51.44,164.14-89.04,29.02-23.2,59.86-47.28,96.1-57.79,40.27-11.68,87.36-3.52,128.27,.38,119.32,11.39,238.63,34.34,358.7,35.59v16.22c-122.11,.12-243.86-18.81-365.5-27.61-41.14-2.98-88.69-10.38-129.17,.68-35.06,9.58-64.96,32.2-93.12,54.29-46.19,36.24-96.53,85.05-159.46,83.51-64.49-1.58-115.81-56.26-161.19-95.79-47.73-41.57-93.3-76.73-159.04-75.05-40.28,1.03-78.67,6.78-116.8,19.98-105.29,36.43-206.89,87.99-316.11,112.15-56.51,12.5-114.55,16.95-171.82,7.5C164.58,632.72,84.89,617.39,0,615.44v-24.08Z"/>
  <path class="cls-1" d="M0,622.7c83.71,1.67,162.9,16.38,245.22,28.6,57.35,8.51,115.54,3.93,172.01-8.58,109.03-24.16,210.42-75.66,315.66-111.71,38.57-13.21,77.43-19.03,118.13-20.07,65.97-1.69,111.81,33.77,159.74,75.43,45.63,39.67,97.22,94.56,161.98,96.27,62.41,1.65,112.13-46.05,158.08-81.88,27.9-21.76,57.53-43.95,92.24-53.26,40.56-10.88,88.21-3.7,129.44-.99,122.32,8.04,244.78,25.76,367.5,25.26v15.65c-124.57,1.49-249.09-12.52-373.44-18.3-41.51-1.93-89.37-8.45-130.21,1.9-33.66,8.53-62.47,29.42-89.63,50.2-45.23,34.6-93.17,79-154,77.08-65.54-2.07-117.93-57.62-164.32-97.69-48.52-41.92-95.14-78.29-161.81-76.55-41.93,1.1-82.15,7.08-122,20.34-105.06,34.94-205.87,86.23-314.31,110.4-56.54,12.6-115.21,17.61-172.9,11.81C157.83,658.61,80.29,645.99,0,645.15v-22.45Z"/>
  <path class="cls-1" d="M0,652.87c79.18,.57,156.13,12.42,234.73,19.13,57.85,4.94,116.7-.21,173.33-12.86,108.26-24.19,208.87-75.4,313.89-109.97,40.26-13.25,80.9-19.3,123.23-20.41,66.89-1.75,113.75,34.9,162.46,76.91,46.62,40.2,99.29,95.98,165.07,98.15,60.31,1.99,107.68-41.33,152.68-75.52,26.93-20.46,55.47-40.91,88.79-49.21,40.95-10.19,88.84-3.87,130.46-2.19,125,5.05,250.19,17.79,375.36,16.04v15.08c-126.68,2.16-253.44-7.27-380.03-10.55-41.89-1.09-89.82-6.97-131.03,2.86-32.47,7.75-60.36,27.11-86.73,46.79-44.44,33.18-90.47,73.85-149.5,71.78-66.36-2.32-119.75-58.79-166.9-99.25-49.15-42.18-96.58-79.53-163.97-77.77-43.25,1.13-84.89,7.31-126.12,20.56-104.9,33.7-205.05,84.61-312.87,108.89C268.35,701.61,135.68,673.17,0,673.19v-20.32Z"/>
  <path class="cls-1" d="M0,681.05c135.01-.3,267.41,25.56,401.14-4.65,107.67-24.33,207.67-75.1,312.53-108.5,41.55-13.24,83.51-19.46,127.06-20.59,67.55-1.75,115.15,35.83,164.45,78.06,47.31,40.54,100.99,97.29,167.52,99.63,58.57,2.05,104.17-37.69,148.41-70.51,26.17-19.41,53.84-38.37,86.02-45.96,41.32-9.74,89.23-3.97,131.22-3.08,127.15,2.68,254.44,10.83,381.64,8.67v14.51c-128.22,1.74-256.5-3.53-384.7-5.08-42.19-.51-90.04-6.16-131.54,3.46-31.6,7.32-58.83,25.48-84.66,44.37-43.88,32.09-88.71,70.03-146.37,68.13-66.82-2.2-121.14-59.7-168.69-100.31-49.55-42.31-97.42-80.3-165.24-78.6-44.07,1.11-86.6,7.4-128.7,20.59-104.82,32.84-204.53,83.23-311.93,107.71C265.92,719.04,133.78,698.23,0,698.8,0,692,0,688.43,0,681.05Z"/>
  <path class="cls-1" d="M0,706.44c133.4-.42,265.63,18.58,397.38-11.6,107.31-24.58,206.94-74.78,311.76-107.42,42.25-13.16,84.93-19.46,129.12-20.54,67.87-1.66,115.79,36.45,165.41,78.77,47.59,40.59,102.18,98.45,169.06,100.52,57.34,1.77,101.97-35.56,145.73-67.38,25.72-18.71,52.81-36.57,84.21-43.84,41.56-9.63,89.37-3.95,131.63-3.56,128.55,1.2,257.14,5.23,385.69,3.91v13.94c-128.94-.14-257.89-1.75-386.83-2.58-42.34-.27-90.04-6.22-131.65,3.58-31.13,7.33-58.06,24.74-83.69,43.23-43.62,31.46-88.14,67.99-145.05,66.63-66.82-1.6-121.97-60.29-169.46-100.71-49.65-42.26-97.5-80.46-165.34-78.92-44.23,1.01-86.96,7.3-129.26,20.36-104.88,32.37-204.41,82.14-311.64,106.97C265.95,738.16,132.98,721.91,0,721.24v-14.79Z"/>
  <path class="cls-1" d="M0,728.23c133.01,.51,266.24,16.96,397.39-13.4,106.63-24.69,205.55-74.2,309.87-106.28,42.59-13.1,85.69-19.45,130.19-20.68,67.41-1.85,116.07,37.34,165.73,78.73,47.61,39.68,103.73,98.61,170.04,100.43,56.55,1.55,101.85-35.56,145.4-66.49,25.82-18.33,52.9-35.72,84.07-43.13,41.71-9.92,89.51-4.05,131.97-3.76,128.44,.89,256.89,3.08,385.33,2.82v13.37c-126.45,.73-252.9-2.6-379.34-3.78-42.47-.4-90.1-6.08-131.82,3.86-31.46,7.49-59.09,24.76-85.52,42.77-44.01,29.99-91.02,67.73-147.35,65.95-65.98-2.09-124.35-60.68-173.02-99.04-50.41-39.73-100.98-79.92-167.98-77.69-44.72,1.49-88.19,7.77-131.04,20.79-103.07,31.31-200.62,80.12-305.91,104.3C266.76,757.15,133.08,740.3,0,740v-11.77Z"/>
  <path class="cls-1" d="M0,746.24c133.13,.22,267.05,17.32,398.38-12.58,104.39-23.76,201.03-72.04,303.24-102.77,42.86-12.88,86.39-19.04,131.07-20.6,66.99-2.35,118.92,37.97,170.13,76.71,49.73,37.62,109.64,95.6,175.79,97.77,56.45,1.85,104.6-36.01,149.19-65.48,26.93-17.8,55.04-34.95,86.78-42.46,41.64-9.84,88.96-4.29,131.33-3.8,124.68,1.44,249.39,5.48,374.08,4.62v12.8c-121.02,.88-242.03-4.4-363.02-6.4-42.06-.7-88.61-6-129.97,3.54-32.41,7.47-61.46,24.38-89.42,41.8-45.98,28.66-96.17,66.35-153.18,64.47-66.95-2.21-129.68-58.63-181.77-95.03-53.04-37.06-107.49-77-174.8-74.57-44.38,1.6-87.79,7.4-130.46,19.94-100.65,29.6-195.63,76.83-298.35,99.75C267.51,773.3,133.22,755.76,0,755.6v-9.36Z"/>
  <path class="cls-1" d="M0,761.2c133.29,.16,267.81,18.01,399.46-10.87,101.53-22.28,195.33-68.72,294.85-97.47,42.42-12.25,85.62-17.75,129.67-19.3,67.76-2.4,124.02,36.94,178.54,72.87,53.99,35.58,118.71,90.68,186.54,92.85,57.6,1.84,109.21-35.53,156.36-63.69,28.74-17.16,58.53-33.87,91.48-41.29,41.11-9.26,87-4.13,128.76-3.27,118.1,2.44,236.2,8.59,354.34,7.79v12.24c-113.38,.57-226.65-6.91-339.95-10.1-41.2-1.16-85.96-6.01-126.59,2.75-33.87,7.3-64.87,23.69-94.88,40.45-49.17,27.45-102.92,64.1-161.69,62.38-69.53-2.04-137.3-54.87-194.5-89.22-57.04-34.25-116.07-72.29-184.82-70.02-43.42,1.43-86.15,6.39-128.06,18.12-97.76,27.36-189.73,72.52-289.39,93.76C268.23,787.31,133.4,768.98,0,768.77v-7.57Z"/>
  <path class="cls-1" d="M0,773.92c133.49,.27,268.54,18.97,400.6-8.52,98.2-20.44,188.76-64.62,285.17-90.83,41.46-11.27,83.74-15.81,126.6-17.1,69.69-2.11,130.82,34.71,189.91,67.71,59.81,33.4,129.9,84.39,200.96,86.28,59.82,1.59,115.18-34.39,166.02-61.33,31.03-16.44,62.99-32.57,97.62-39.77,40.2-8.35,84.05-3.71,124.76-2.3,109.44,3.78,218.82,12.29,328.36,11.95v11.67c-104.22-.02-208.15-9.92-312.21-14.54-39.99-1.77-82.57-6.14-122.13,1.65-35.71,7.03-69.02,22.8-101.44,38.82-53.19,26.28-110.67,61.25-172.07,59.86-73.36-1.65-146.53-50.07-209.99-82.16-61.97-31.34-125.86-66.31-197.04-64.46-42.02,1.09-83.65,4.99-124.42,15.63-94.54,24.67-183.25,67.43-279.46,86.78C268.94,799.85,133.61,780.65,0,780.27v-6.35Z"/>
  <path class="cls-1" d="M0,785.21c133.71,.48,269.26,20.12,401.78-5.75,94.51-18.45,181.69-60.03,274.66-83.35,40.15-10.07,81.18-13.43,122.46-14.33,72.6-1.57,138.71,31.7,203.16,61.69,66.58,30.98,142.27,77.22,217.72,78.64,62.82,1.19,122.05-32.87,177.26-58.61,33.6-15.67,68.04-31.13,104.7-38.01,38.99-7.32,80.5-3.17,119.85-1.07,99.47,5.33,198.72,16.43,298.4,16.76v11.1c-94.28-.69-187.9-13.22-281.87-19.41-38.55-2.54-78.8-6.42-117.08,.36-37.8,6.7-73.59,21.79-108.6,37.04-57.64,25.11-118.91,58.05-183.49,57.11-78.05-1.14-156.7-44.8-227-74.42-67.41-28.4-136.07-59.57-210.5-58.36-40.38,.66-80.68,3.39-120.07,12.75-91.11,21.66-176.5,61.85-268.99,79.25C269.64,811.6,133.84,791.45,0,790.83v-5.62Z"/>
  <path class="cls-1" d="M0,795.88c133.97,.75,269.99,21.37,402.98-2.81,90.61-16.48,174.4-55.4,263.8-75.5,38.7-8.7,78.31-10.86,117.86-11.3,76.19-.85,147.12,28.34,217.23,55.3,73.68,28.34,154.99,69.68,235.5,70.55,66.23,.71,129.34-31.21,189.2-55.74,36.29-14.87,73.32-29.63,112.18-36.15,37.62-6.32,76.74-2.67,114.54,.29,88.95,6.97,177.37,20.82,266.71,21.84v10.53c-84.29-1.32-167.26-16.58-251.01-24.35-37.02-3.44-75-6.82-111.92-.96-39.97,6.34-78.27,20.76-115.88,35.23-62.14,23.92-127.14,54.79-195.11,54.31-83.12-.58-167.15-39.57-244.31-66.54-72.89-25.48-146.11-52.6-224.2-52.14-38.72,.23-77.6,1.82-115.59,9.81-87.6,18.43-169.78,56.07-258.41,71.61C270.35,823.22,134.1,802.09,0,801.21v-5.33Z"/>
  <path class="cls-1" d="M0,806.74c134.24,1,270.72,22.65,404.17,.08,86.64-14.65,167.24-51.05,253.04-67.77,37.32-7.27,75.5-8.32,113.41-8.35,79.99-.07,155.47,25.02,231.05,49.03,80.55,25.59,167.25,62.28,252.97,62.6,69.69,.26,136.56-29.6,200.92-52.91,38.9-14.09,78.46-28.16,119.53-34.33,36.22-5.44,73.12-2.34,109.36,1.61,78.67,8.57,156.2,25.25,235.55,26.83v9.96c-75.02-1.76-147.57-19.77-221.72-29.05-35.53-4.45-71.51-7.27-107.11-2.17-42.07,6.02-82.74,19.78-122.8,33.52-66.32,22.75-134.87,51.73-206.11,51.66-88.08-.09-177.16-34.77-260.71-59.08-77.94-22.68-155.43-45.98-237.16-46.25-37.23-.12-74.78,.5-111.53,7.09-84.16,15.08-163.35,50.43-248.15,64.3C271.07,835.37,134.37,813.24,0,812.15v-5.4Z"/>
  <path class="cls-1" d="M0,818.6c134.52,1.17,271.46,23.84,405.33,2.68,82.8-13.09,160.5-47.29,242.86-60.62,120.03-19.43,237.51,6.93,353.24,37.54,86.65,22.92,178.25,55.51,268.81,55.39,72.85-.1,143.2-28.2,211.54-50.34,77.41-25.07,149.65-41.68,231.05-29.92,69.45,10.03,136.6,29.48,207.17,31.38v9.39c-67.29-1.95-130.14-22.55-196.07-33.16-80.95-13.03-154.74,4.94-232,28.87-69.84,21.64-141.6,49.12-215.66,49.33-92.44,.26-185.98-30.77-274.96-52.58-116.92-28.66-236.05-54.08-356.84-36.25-80.93,11.94-157.45,45.26-238.65,57.77C271.79,848.72,134.65,825.6,0,824.39v-5.79Z"/>
  <path class="cls-1" d="M0,832.27c134.8,1.21,272.21,24.87,406.44,4.76,79.33-11.89,154.48-44.21,233.73-54.55,121.88-15.91,242.49,8.17,361,34.76,91.49,20.53,187.18,49.86,281.67,49.51,75.35-.28,148.71-27.17,220.14-48.22,76.99-22.69,152.8-42.34,233.18-27.77,62.14,11.27,119.97,33.2,183.83,35.12v8.82c-61.87-1.84-116.28-24.66-176.13-36.36-79.97-15.63-157.3,5.24-234.06,27.12-72.39,20.64-146.82,47.24-222.92,47.52-95.75,.35-192.81-27.94-285.84-47.6-119.71-25.3-241.04-48.34-363.81-33.74-78.09,9.29-152.29,40.94-230.34,52.45C272.53,863.91,134.91,839.86,0,838.69v-6.42Z"/>
  <path class="cls-1" d="M0,848.55c135.06,1.05,272.98,25.62,407.48,6.08,76.48-11.11,149.44-41.93,226.11-50.03,124.03-13.1,245.89,8.6,367.25,32.48,94.63,18.61,193.22,45.81,290.25,45.58,76.83-.18,152.52-26.65,225.84-46.77,76.47-20.98,155.81-43.37,235.28-26.53,57.52,12.19,107.78,36.06,167.78,37.69v8.25c-32.69-.79-63.52-5.56-94.49-16.03-23.09-7.81-45.61-17.03-69.49-22.27-79.24-17.41-159.75,5.83-236.09,26.36-73.64,19.81-150.03,46.38-227.08,46.42-97.54,.06-196.83-26.66-292.14-44.7-122.38-23.16-244.37-44.18-369.19-31.76-75.84,7.55-148.06,37.85-223.65,48.79C273.28,881.6,135.16,856.71,0,855.79v-7.23Z"/>
  <path class="cls-1" d="M0,868.24c135.21,.75,273.57,25.91,408.16,6.36,74.82-10.87,146.39-40.5,221.56-47.59,125.73-11.85,247.33,8.47,370.87,30.99,95.6,17.43,195.39,43.87,293.06,44.14,76.95,.22,154.08-26.75,227.71-46.14,76.31-20.1,157.86-44.14,237-26.4,23.25,5.21,44.93,14.62,67.3,22.57,30.84,10.96,61.64,15.41,94.34,16.07v7.69c-32.68-.78-63.52-5.34-94.42-16.03-22.6-7.82-44.57-17.06-68-22.24-79.1-17.51-160.31,6.3-236.67,26.17-73.49,19.13-150.66,45.96-227.39,45.75-97.31-.26-196.86-26.55-292.14-43.78-123.43-22.32-244.51-42.22-370.04-30.76-75.84,6.92-148.14,36.07-223.57,47.02C273.31,901.57,135.09,876.81,0,875.92v-7.69Z"/>
  <path class="cls-1" d="M0,889.41c134.99,1.04,272.94,24.81,407.32,5.72,77.05-10.94,151.18-38.85,228.74-45.4,36.34-3.07,72.92-3.45,109.36-3.71,86.84-.62,173.86,18.51,258.99,33.59,94.17,16.68,192.55,42.25,288.64,42.49,76.13,.19,152.97-25.9,226.06-44.38,76.48-19.34,156.82-42.12,235.87-25.39,56.76,12.02,105.69,35.4,165,37.07v7.12c-59.57-1.75-109.7-24.48-166.92-36.18-79.01-16.16-158.8,5.82-235.35,24.79-72.81,18.04-149.29,43.52-225.01,43.33-95.18-.23-192.6-25.19-285.93-41.49-84.45-14.75-170.79-33.49-256.89-32.84-36.82,.28-73.75,.72-110.48,3.66-78.72,6.29-154.07,33.4-232.23,44.26C272.79,920.71,134.99,897.6,0,896.53v-7.12Z"/>
  <path class="cls-1" d="M0,910.59c135.07,1.08,272.57,22.63,407.12,5.09,80.81-10.54,159.05-35.79,240.47-41.49,37.83-2.65,75.8-3.18,113.7-3.47,84.28-.63,168.76,16.94,251.54,30.9,91.22,15.38,186.14,38.76,279.05,38.98,74.73,.18,150.18-23.71,222.29-40.7,76.67-18.07,155.26-38.03,234.15-23.28,58.48,10.94,111.28,32.19,171.69,33.97v6.55c-60.95-1.74-115.1-22.23-174.31-32.76-78.78-14-156.81,4.88-233.51,22.45-71.73,16.44-146.59,39.43-220.78,39.25-91.66-.22-185.17-22.71-275.23-37.6-81.87-13.53-165.28-30.41-248.57-29.81-38.54,.28-77.13,.84-115.6,3.35-82.83,5.4-162.6,29.68-244.83,40C272.5,938.93,135.14,918.19,0,917.14v-6.55Z"/>
  <path class="cls-1" d="M0,931.76c135.34,.94,272.44,19.69,407.39,4.46,85.74-9.67,169.29-31.58,255.59-36.29,40.16-2.19,80.41-2.77,120.62-3.03,80.8-.51,161.49,14.55,241.05,27.02,87.12,13.65,177.06,33.88,265.57,34.09,72.86,.18,146.15-20.54,216.93-35.6,76.67-16.31,153.52-32.56,231.96-20.36,61.11,9.51,118.42,28.13,180.88,29.71v5.98c-63.18-1.48-121.82-19.29-183.81-28.35-78.26-11.43-154.68,3.7-231.29,19.43-70.34,14.44-142.93,34.14-215.2,33.96-87.1-.21-175.44-19.43-261.24-32.52-78.53-11.98-158-26.23-237.68-25.76-40.98,.24-81.99,.82-122.92,2.88-87.82,4.42-173.04,25.29-260.32,34.65C272.45,956.53,135.43,938.62,0,937.75v-5.98Z"/>
  <path class="cls-1" d="M0,952.94c135.7,.67,272.53,16.29,407.98,3.83,91.41-8.4,181.11-26.54,272.98-30.24,43.06-1.73,86.17-2.27,129.26-2.46,76.65-.34,152.83,11.66,228.56,22.34,82.21,11.59,166.25,28.08,249.52,28.28,70.68,.17,141.36-16.76,210.51-29.53,76.33-14.1,151.83-26.37,229.48-16.9,64.41,7.86,126.45,23.52,191.72,24.68v5.41c-66.08-1.03-129.34-15.91-194.66-23.32-77.39-8.78-152.63,2.48-228.82,15.96-68.69,12.15-138.67,28.05-208.76,27.89-81.85-.19-164.29-15.67-245.16-26.7-74.67-10.19-149.64-21.36-225.16-21.06-43.88,.17-87.78,.68-131.64,2.3-93.36,3.45-184.71,20.62-277.65,28.61C272.57,973.68,135.8,958.94,0,958.35v-5.41Z"/>
  <path class="cls-1" d="M0,974.12c136.08,.35,272.78,12.64,408.72,3.21,97.46-6.76,193.72-21.02,291.49-23.76,46.24-1.29,92.49-1.73,138.75-1.83,72.13-.16,143.55,8.57,215.06,17.27,76.85,9.35,154.61,21.85,232.19,22,68.31,.13,136.26-12.73,203.56-23,75.67-11.54,150.3-20.02,226.85-13.16,68.07,6.1,134.8,18.66,203.38,19.27v4.84c-69.38-.48-137.14-12.32-206.08-18.02-76.26-6.31-150.76,1.37-226.24,12.29-66.86,9.68-134.19,21.61-201.95,21.49-76.25-.14-152.58-11.73-228.18-20.55-118.18-13.79-234.09-17.45-352.89-14.41-99.13,2.54-196.91,15.91-295.77,22.26C272.85,990.77,136.16,979.23,0,978.96v-4.84Z"/>
  <path class="cls-1" d="M0,995.29c136.41,.02,273.12,9.1,409.47,2.58,103.5-4.95,206.31-15.39,309.99-17.29,117.31-2.14,232.93-.51,349.8,11.01,71.39,7.04,143.04,15.65,214.87,15.74,65.92,.08,131.27-8.79,196.62-16.47,74.8-8.8,148.91-14,224.22-9.43,71.82,4.36,142.95,13.83,215.03,13.86v4.27c-72.79,.08-144.75-8.78-217.31-12.81-75.06-4.16-149.08,.45-223.7,8.7-64.95,7.17-129.82,15.26-195.27,15.2-70.7-.07-141.18-7.94-211.49-14.51-116.55-10.9-232.07-12.08-349.01-10.14-104.84,1.74-208.93,11.44-313.62,16.02C273.18,1007.99,136.47,999.52,0,999.57v-4.27Z"/>
  <path class="cls-1" d="M0,1016.47c136.65-.25,273.42,5.87,410.05,1.96,109.19-3.13,218.06-10.07,327.33-11.25,115.57-1.25,230.62-1.45,345.95,6.91,66.25,4.8,132.41,9.94,198.88,9.94,63.66,0,126.81-5.23,190.22-10.44,73.92-6.06,147.58-8.69,221.74-5.97,75.34,2.76,150.38,9.32,225.84,8.85v3.71c-76.01,.54-151.66-5.54-227.58-8.04-73.98-2.44-147.55-.18-221.33,5.42-129.7,9.84-255.75,9.24-385.51,.45-115.09-7.79-230.01-7.37-345.3-6.25-110.18,1.07-220.04,7.45-330.16,10.27C273.46,1025.53,136.68,1019.89,0,1020.18v-3.71Z"/>
  <path class="cls-1" d="M0,1037.65c136.76-.39,273.55,3.16,410.31,1.33,114.15-1.53,228.2-5.48,342.37-6.09,114.16-.61,228.33-1.65,342.4,3.49,123.86,5.58,246.55,5.7,370.4-.28,151.73-7.33,302.83,3.02,454.53,1.55v3.14c-151.94,1.49-303.44-8.02-455.4-1.38-122.98,5.37-245.07,5.3-368.05,.25-113.9-4.68-227.92-3.6-341.91-3.06-114.81,.54-229.54,4.1-344.33,5.42C273.55,1043.6,136.76,1040.39,0,1040.78v-3.14Z"/>
  <path class="cls-1" d="M0,1058.82c254.68-.64,509.37-1.08,764.06-1.53,232.18-.41,464.39,5.61,696.52,.97,153.15-3.06,306.27,1.86,459.42,.56v2.57c-153.29,1.22-306.55-3.09-459.84-.47-231.65,3.97-463.37-1.12-695.05-.78C510.08,1060.52,255.03,1060.79,0,1061.39v-2.57Z"/>
  <path class="cls-1" d="M0,1080c486.14-.15,972.29,.53,1458.43-.02,153.86-.18,307.71,.19,461.57,.02v2H0v-2Z"/>
</svg>