<?xml version="1.0" encoding="UTF-8"?>
<svg id="Layer_4" data-name="Layer 4" xmlns="http://www.w3.org/2000/svg" viewBox="0 0 1920 1080">
  <defs>
    <style>
      .cls-1 {
        fill: #fff;
      }
    </style>
  </defs>
  <path class="cls-1" d="M0,0H1920V31c-153.73,0-308.08-4.18-461.69,2.22-117.26,4.89-234.05,5.19-351.31,.23-112.07-4.74-224.36-2.46-336.51-2.46H0V0Z"/>
  <path class="cls-1" d="M0,21.18H770.49c229.26,0,458.68,6.65,687.86,.98,153.76-3.8,307.84-.98,461.64-.98v30.43c-153.5,0-308.8-7.08-461.83,6.13-118.21,10.2-233.11,10.85-351.32,.48-111.87-9.82-224.15-6.61-336.35-6.61H0V21.18Z"/>
  <path class="cls-1" d="M0,42.35H770.49c112.16,0,224.47-2.84,336.43,4.54,117.64,7.76,233.68,7.27,351.32-.36,153.34-9.95,308.15-4.18,461.76-4.18v29.86c-153.28,0-309.92-9.95-462.03,11.4-60.04,8.43-119.46,16.8-180.21,16.76-57.67-.03-114.15-7.83-171.12-15.98-111.67-15.98-223.61-12.18-336.15-12.18H0C0,62.26,0,52.31,0,42.35Z"/>
  <path class="cls-1" d="M0,63.53H770.49c112.35,0,224.49-3.58,336.24,9.69,57.1,6.78,113.67,12.9,171.23,12.9,60.56,0,120.01-6.53,180.09-13.55,152.54-17.8,308.58-9.04,461.94-9.04v29.29c-153.21,0-311.36-12.68-462.26,17.53-59.73,11.96-119.3,25.2-180.52,25.06-57.93-.13-114.34-12.38-170.83-23.95-111.54-22.85-222.61-18.64-335.91-18.64H0v-29.29Z"/>
  <path class="cls-1" d="M0,84.71H770.49c112.94,0,224.42-4.06,336,16.02,56.71,10.21,113.12,20.64,170.94,20.73,61.03,.09,120.51-11.16,180.39-21.7,151.4-26.67,308.95-15.04,462.16-15.04v28.73h-244.92c-36.77,0-74.1-1.79-110.71,2.13-36.23,3.88-71.69,12.67-106.87,21.9-59.12,15.51-119.14,34.06-180.84,33.81-58.24-.24-114.77-17.33-170.51-32.35-55.56-14.97-109.39-25.49-167.09-25.49H0v-28.73Z"/>
  <path class="cls-1" d="M0,105.88H939.05c57.46,0,111.49,9.28,167.19,22.97,56.04,13.77,112.51,29.06,170.63,29.26,61.53,.21,121.35-16.37,180.72-30.59,35.22-8.43,70.68-16.43,106.79-19.85,36.65-3.47,73.92-1.79,110.7-1.79h244.92v28.16h-244.92c-36.77,0-74.24-2.11-110.74,3.02-36.57,5.14-72.02,16.05-107.07,27.38-58.31,18.85-118.96,42.78-181.16,42.41-58.58-.35-115.39-22.32-170.21-40.6-55.12-18.39-108.43-32.21-166.84-32.21H0v-28.16Z"/>
  <path class="cls-1" d="M0,127.06H939.05c58.17,0,111.64,12.72,166.93,29.98,55.14,17.21,111.85,37.55,170.31,37.86,62.03,.33,122.45-21.8,181.06-39.55,35.1-10.63,70.55-20.83,107.01-25.56,36.54-4.73,73.96-2.73,110.73-2.73h244.92v27.59h-244.92c-36.76,0-74.4-2.41-110.77,3.76-36.93,6.26-72.36,19.15-107.26,32.4-57.47,21.82-118.7,50.72-181.45,50.25-59.01-.44-116.05-26.92-169.93-48.12-54.66-21.5-107.42-38.28-166.62-38.28H0v-27.59Z"/>
  <path class="cls-1" d="M0,148.24H939.05c58.95,0,111.89,15.92,166.68,36.49,54.16,20.34,111.14,45.48,170.01,45.9,62.57,.44,123.64-26.98,181.37-47.92,34.95-12.68,70.38-24.97,107.2-30.91,36.41-5.87,74-3.55,110.76-3.55h244.92v27.02h-244.92c-36.73,0-74.55-2.69-110.79,4.22-37.28,7.11-72.67,21.7-107.41,36.58-56.79,24.32-118.3,57.25-181.69,56.72-59.55-.5-116.59-30.67-169.7-54.32-54.28-24.18-106.41-43.19-166.44-43.19H0v-27.02Z"/>
  <path class="cls-1" d="M0,169.41H939.05c59.79,0,112.12,18.48,166.48,41.95,53.3,23.01,110.37,52.24,169.76,52.73,63.2,.52,124.68-31.4,181.63-55.06,34.79-14.45,70.19-28.6,107.37-35.5,36.28-6.73,74.04-4.12,110.78-4.12h244.92v26.45h-244.92c-36.64,0-74.69-2.97-110.79,4.27-37.59,7.53-72.95,23.46-107.52,39.56-56.48,26.3-117.67,61.77-181.86,61.23-60.23-.51-116.85-33.02-169.54-58.62-54.13-26.3-105.47-46.43-166.32-46.43H0v-26.45Z"/>
  <path class="cls-1" d="M0,190.59H939.05c60.64,0,112.2,19.98,166.34,45.79,52.75,25.15,109.53,57.22,169.57,57.73,63.97,.55,125.31-34.45,181.82-60.29,34.61-15.83,69.98-31.46,107.5-38.93,36.14-7.2,74.12-4.3,110.79-4.3h244.92v25.88c-81.64,0-163.28,0-244.92,0-36.49,0-74.8-3.24-110.77,3.79-37.82,7.4-73.17,24.14-107.58,40.95-56.73,27.71-116.8,63.64-181.93,63.16-61.05-.45-116.68-33.45-169.47-60.42-54.36-27.77-104.64-47.48-166.28-47.49-56.19,0-112.37,0-168.56,0-256.83,0-513.66-.03-770.49,0v-25.88Z"/>
  <path class="cls-1" d="M0,211.76H939.05c61.46,0,112.01,19.97,166.28,47.46,52.72,26.71,108.63,59.79,169.48,60.26,64.9,.5,125.31-35.53,181.92-62.98,34.44-16.7,69.79-33.31,107.57-40.79,36-7.13,74.25-3.95,110.78-3.95h244.92v25.31c-81.01,.9-161.99-1.27-243-1.78-36.28-.23-74.72-3.23-110.48,3.68-38.36,7.41-74.21,24.73-109.03,41.84-57.4,28.21-117.94,64.87-183.92,64.38-61.28-.45-115.62-33.35-168.09-61.29-54.44-28.98-103.71-47.58-165.8-48.24-55.56-.59-111.12-.61-166.68-.12-119.77,1.05-239.46,6.23-359.21,7.2C275.84,243.88,137.88,234.37,0,237.08v-25.31Z"/>
  <path class="cls-1" d="M0,232.94c137.32-2.49,274.79,4.63,412.16,4.02,120-.53,239.97-4.46,359.98-5.21,55.75-.35,111.5-.29,167.25,.22,62.06,.57,111.56,19.3,166.07,48.01,52.62,27.72,107.25,60.56,168.53,61.01,65.75,.48,126.07-35.92,183.29-63.99,34.68-17.02,70.39-34.19,108.59-41.57,35.81-6.92,74.23-3.88,110.55-3.73,81.2,.35,162.38,2.02,243.58,1.24v24.75c-79.69,1.08-159.18-3.92-238.82-5.64-36.08-.78-74.48-3.75-110.05,3.26-39.45,7.78-76.33,25.98-112.09,43.72-58.61,29.06-121.01,67.74-188.56,67.22-60.94-.46-113.63-34.18-164.86-63.32-53.54-30.45-101.42-49.06-163.41-49.85-54.2-.69-108.41-.28-162.59,1.18-118.08,3.17-235.34,15.94-353.23,20.7-62.32,2.52-125.97,2.51-188.13-2.77-79.56-6.76-158.23-15.71-238.25-14.49v-24.75Z"/>
  <path class="cls-1" d="M0,254.12c78.89-1.35,156.7,6.66,235.23,12.46,62.36,4.61,126,4.51,188.49,2.44,118.28-3.93,236.09-15.24,354.5-17.97,54.47-1.26,108.95-1.57,163.43-.86,62.04,.8,110.19,19.33,163.94,49.52,51.5,28.92,104.5,62.44,165.53,62.9,67.24,.51,129.23-37.74,187.6-66.63,35.56-17.61,72.23-35.64,111.46-43.33,35.61-6.98,74.02-4.01,110.13-3.35,79.92,1.47,159.72,5.94,239.68,4.85v24.18c-77.9,.76-155.19-7.65-232.92-11.1-35.91-1.6-74.09-4.68-109.5,2.6-40.98,8.43-79.28,27.75-116.4,46.36-60.23,30.19-125.56,71.86-195.23,71.31-60.21-.47-110.94-35.74-160.2-66.25-51.84-32.12-98.06-51.58-159.56-52.11-52.3-.45-104.59,.74-156.82,3.55-58.03,3.13-116.37,6.84-174.01,14.42-56.88,7.48-113.19,19.22-170.34,24.59C294.4,325.8,150.12,278.39,0,278.29v-24.18Z"/>
  <path class="cls-1" d="M0,275.29c86.49-.18,169.74,13.74,254.95,26.18,61.51,8.98,125.11,9.87,187.04,4.61,57.39-4.87,114.05-15.8,171.2-22.73,57.88-7.02,116.37-10.49,174.59-13.37,52.54-2.6,105.14-3.66,157.75-3.15,61.59,.59,108.06,19.88,160.2,51.75,49.59,30.31,100.62,65.31,160.95,65.78,69.34,.54,134.19-40.64,194.16-70.65,36.9-18.47,74.98-37.62,115.71-45.93,35.43-7.23,73.65-4.17,109.58-2.71,78.03,3.18,155.68,11.06,233.87,10.23v23.61c-75.86,.11-150.36-12.11-225.82-17.67-35.78-2.64-73.56-5.87-108.87,1.79-42.79,9.28-82.78,29.87-121.56,49.52-62.11,31.47-131.16,76.86-203.31,76.26-59.26-.5-107.8-37.83-154.57-69.8-49.55-33.87-93.94-54.83-154.7-54.83-50.05,0-100.04,2.22-149.89,6.68-56.58,5.06-113.81,10.66-169.46,22.22-54.97,11.42-108.55,29.24-163.99,38.43-62.71,10.4-125.18,7.13-186.88-7.47C187.15,321.83,97.05,300.88,0,298.9v-23.61Z"/>
  <path class="cls-1" d="M0,296.47c95.88,1.73,185.25,21.95,278.14,43.05,61.63,14,124.27,16.95,186.85,7.16,55.65-8.7,109.58-25.78,164.77-36.72,55.92-11.08,113.28-16.44,170.04-21.26,50.15-4.25,100.42-6.34,150.75-6.28,60.85,.07,105.46,20.83,155.31,54.49,47.09,31.8,95.89,68.87,155.27,69.36,71.84,.6,140.42-44.32,202.3-75.64,38.57-19.52,78.35-39.96,120.92-49.13,35.32-7.61,73.16-4.39,108.95-1.89,75.74,5.3,150.6,17.06,226.71,16.85v23.04c-73.78-.7-145.04-16.97-218.06-24.85-35.71-3.86-72.9-7.2-108.2,.88-44.77,10.25-86.6,32.18-127.2,52.97-64.11,32.84-137.38,82.38-212.16,81.68-58.27-.55-104.42-40.27-148.38-73.7-46.85-35.62-89.37-58.49-149.27-57.79-47.63,.56-95.09,3.94-142.31,10.22-54.95,7.31-111.02,15.06-164.29,30.67-53.13,15.56-103.45,39.9-157.16,53.48-64.15,16.22-124.93,9.58-187.42-10.17-41.28-13.05-82.02-27.65-124-38.44C121.88,329.12,61.48,321.93,0,319.51v-23.04Z"/>
  <path class="cls-1" d="M0,317.65c60.91,2.3,120.76,9.3,179.94,24.23,41.73,10.53,82.27,24.79,123.35,37.48,62.42,19.29,123.34,25.58,187.36,9.92,53.87-13.17,104.5-36.91,157.79-52.1,53.49-15.25,109.66-22.79,164.77-29.89,47.46-6.11,95.15-9.39,143.01-9.89,59.98-.63,102.67,22.06,149.77,57.52,44.23,33.3,90.6,72.8,148.95,73.34,74.54,.69,147.42-48.47,211.35-81.18,40.43-20.69,82.09-42.49,126.68-52.65,35.3-8.04,72.55-4.7,108.26-.96,73.25,7.67,144.82,23.56,218.78,24.19v22.47c-71.86-1.53-139.56-21.89-210.17-32.15-35.67-5.18-72.14-8.56-107.52-.05-46.78,11.26-90.48,34.53-132.93,56.48-66.11,34.18-143.77,88.04-221.17,87.2-57.36-.62-101.02-42.84-142.09-77.66-43.98-37.28-84.66-62.26-143.74-60.81-45.23,1.11-90.09,5.67-134.6,13.84-53.29,9.78-108.29,19.89-158.99,39.24-51.54,19.67-98.18,50.52-150.23,68.78-65.43,22.96-124.94,11.75-188.09-12.91-43.51-16.99-86.39-35.35-131.13-49C134.24,353.21,67.84,343.86,0,340.12v-22.47Z"/>
  <path class="cls-1" d="M0,338.82c67.44,3.66,133.47,12.88,198.24,32.46,44.57,13.48,87.31,31.61,130.69,48.35,63.12,24.37,122.68,35.26,188.05,12.74,52.15-17.96,99.03-48.41,150.66-67.83,50.86-19.13,105.92-29.08,159.31-38.71,44.67-8.05,89.69-12.54,135.08-13.62,59.13-1.4,99.92,23.45,144.08,60.62,41.25,34.73,85.07,76.8,142.48,77.41,77.24,.83,154.63-52.76,220.61-86.86,42.34-21.88,85.92-45.07,132.57-56.27,35.37-8.49,71.89-5.11,107.56,0,70.76,10.11,138.69,30.22,210.66,31.7v21.9c-70.28-2.24-134.28-26.55-202.68-39.08-35.62-6.53-71.39-9.82-106.86-.92-48.69,12.21-94.16,36.76-138.37,59.82-43.69,22.78-86.86,46.94-132.17,66.44-30.25,13.02-64.07,26.41-97.54,25.99-56.66-.71-97.83-45.31-136.13-81.41-41.19-38.82-80.12-65.79-138.54-63.67-43.04,1.56-85.4,7.2-127.28,17.22-51.71,12.36-105.83,24.86-154.07,47.42-50.33,23.54-93.08,60.45-143.6,83.34-65.93,29.88-125.25,13.36-188.38-15.54-45.5-20.83-90.36-42.75-137.75-59.11C146.31,376.94,74.03,365.64,0,360.73,0,351.96,0,347.58,0,338.82Z"/>
  <path class="cls-1" d="M0,360c73.82,4.87,145.89,16.11,216.04,40.23,47.31,16.27,92.1,38.08,137.53,58.77,63.14,28.76,122.45,45.09,188.38,15.45,50.56-22.74,93.46-59.44,143.82-82.85,48.32-22.46,102.47-34.88,154.23-47.15,41.97-9.95,84.42-15.56,127.52-17.11,58.44-2.1,97.43,24.81,138.71,63.58,38.4,36.06,79.65,80.58,136.33,81.29,33.45,.42,67.22-12.93,97.45-25.94,45.24-19.46,88.34-43.58,131.97-66.32,44.16-23.02,89.57-47.53,138.19-59.71,35.47-8.88,71.26-5.59,106.89,.89,68.48,12.46,132.61,36.64,202.94,38.85v21.33c-69.18-2.68-129.55-30.6-196.13-45.15-35.51-7.76-70.74-10.85-106.27-1.67-50.36,13.02-97.39,38.72-143.15,62.74-45.41,23.84-90.29,49.07-137.34,69.61-30.77,13.43-65.63,27.86-99.81,27.38-56.25-.78-95.05-47.41-130.94-84.68-38.77-40.27-76.08-68.77-134.13-66.19-41.21,1.83-81.31,8.34-120.87,20.01-50.33,14.85-103.88,29.6-150.03,54.71-49.53,26.95-88.48,69.1-137.64,96.2-65.48,36.09-125.55,14.28-187.81-17.9-47.1-24.35-93.58-49.14-143.21-68.16C157.86,399.56,79.57,387.07,0,381.33v-21.33Z"/>
  <path class="cls-1" d="M0,381.18c79.53,5.73,157.78,18.21,232.56,46.85,49.61,19,96.08,43.77,143.17,68.09,62.27,32.17,122.33,53.93,187.82,17.89,49.18-27.07,88.15-69.19,137.69-96.11,46.16-25.09,99.72-39.82,150.06-54.65,39.58-11.66,79.7-18.16,120.91-19.99,58.05-2.58,95.38,25.91,134.16,66.17,35.9,37.27,74.72,83.88,130.97,84.66,34.18,.47,69.03-13.95,99.8-27.37,47.04-20.53,91.9-45.75,137.3-69.58,45.75-24.01,92.77-49.71,143.12-62.72,35.53-9.18,70.76-6.09,106.28,1.66,66.59,14.54,126.98,42.44,196.17,45.11v20.76c-68.26-2.69-125.05-33.3-189.93-49.59-34.69-8.71-69.5-11.86-104.47-3.12-51.2,12.79-99.11,39.26-145.5,63.67-46.75,24.6-92.88,50.68-141.13,72.31-32.96,14.78-70.74,31.48-107.63,30.32-55.39-1.75-91.85-50.27-125.41-87.99-36.93-41.51-72.51-70.23-130.34-67.51-39.58,1.86-77.76,8.72-115.23,21.64-48.75,16.81-101.43,33.31-145.81,59.53-49.41,29.2-85.01,74.94-132.63,106.05-65.42,42.75-127.45,16.46-189.73-19.03-47.87-27.28-95.33-54.42-146.52-75.16C167.08,421.2,84.15,407.96,0,401.94v-20.76Z"/>
  <path class="cls-1" d="M0,402.35c84.24,6.02,167.26,19.26,245.94,51.18,51.22,20.78,98.69,47.95,146.57,75.29,62.23,35.53,124.29,61.89,189.67,19.07,47.6-31.17,83.14-76.98,132.55-106.22,44.36-26.25,97.04-42.78,145.77-59.63,37.44-12.95,75.59-19.81,115.15-21.67,57.83-2.72,93.39,26.01,130.29,67.54,33.53,37.74,69.95,86.28,125.34,88.03,36.9,1.16,74.69-15.55,107.65-30.33,48.27-21.65,94.42-47.74,141.2-72.35,46.41-24.42,94.34-50.9,145.56-63.7,34.96-8.74,69.77-5.59,104.46,3.13,64.86,16.31,121.59,46.98,189.84,49.67v20.2c-68.35-2.2-122.56-35.14-186.84-52.45-34.35-9.25-69.36-12.1-104.08-3.41-52,13.01-100.66,40.18-147.72,65.02-47.73,25.2-94.82,51.9-144.06,74.1-33.17,14.96-70.96,31.76-108.13,30.63-55.79-1.71-90.55-50.69-123.07-89.46-36.08-43.03-70.57-71.04-128.89-68.7-38.83,1.56-75.89,8.37-112.22,22.25-48.27,18.44-101.21,36.18-145,63.41-49.46,30.75-82.37,79.37-129.33,112.6-63.32,44.82-126.34,16.18-185.83-20.4-47.95-29.49-95.63-58.33-147.68-80.23C175.24,441.43,88.11,428.22,0,422.55v-20.2Z"/>
  <path class="cls-1" d="M0,423.53c88.27,5.63,175.57,18.82,257.62,53.39,52.06,21.93,99.73,50.84,147.66,80.41,59.34,36.61,122.39,65.29,185.59,20.45,46.94-33.3,79.74-82.02,129.21-112.81,43.79-27.26,96.76-45.04,145.02-63.54,36.3-13.91,73.32-20.71,112.13-22.24,58.36-2.3,92.8,25.63,128.87,68.73,32.49,38.83,67.18,87.8,123,89.5,37.17,1.13,74.94-15.65,108.12-30.62,49.27-22.22,96.4-48.95,144.16-74.17,47.09-24.86,95.77-52.06,147.79-65.06,34.71-8.68,69.73-5.84,104.07,3.42,64.28,17.34,118.38,50.36,186.75,52.53v19.63c-68.46-2.24-123.39-35.17-187.88-52.44-34.35-9.2-69.22-12.09-103.95-3.43-51.93,12.95-100.5,40.15-147.45,65.05-47.55,25.22-94.46,51.95-143.55,74.15-33.29,15.05-71,31.65-108.29,30.64-56.08-1.52-90.6-50.75-123.07-89.82-36.2-43.55-70.3-71.01-128.98-68.98-38.88,1.35-75.67,8.51-111.87,22.78-48.08,18.95-101.15,36.03-144.97,63.21-49.71,30.83-82.34,79.91-129.34,113.45-63.05,44.99-126.6,15.87-185.86-20.56-47.95-29.48-95.64-58.32-147.68-80.21C175.2,462.53,88.09,449.31,0,443.64v-20.11Z"/>
  <path class="cls-1" d="M0,445.34c87.84,5.72,174.66,18.98,256.34,53.28,52.01,21.84,99.71,50.58,147.69,79.92,59.47,36.37,123.04,65.47,186.23,20.47,47.04-33.5,79.8-82.49,129.53-113.28,43.83-27.13,96.88-44.05,144.93-63.01,36.23-14.29,73.03-21.54,111.94-22.9,58.68-2.05,92.8,25.48,129.04,68.99,32.51,39.04,67.1,88.34,123.18,89.85,37.3,1,75.01-15.59,108.31-30.65,49-22.16,95.82-48.87,143.28-74.05,46.9-24.88,95.4-52.04,147.28-64.98,34.76-8.67,69.59-5.75,103.97,3.42,64.56,17.21,119.8,49.99,188.27,52.3v19.06c-69.62-2.82-129.41-33.37-195.92-49.57-34.88-8.5-69.61-11.91-104.74-3.15-50.79,12.67-98.16,39.24-143.96,63.8-46.01,24.68-91.37,50.88-138.94,72.5-32.99,15-70.53,31.37-107.52,30.38-56.36-1.5-92.16-51.59-125.42-90.43-36.89-43.07-71.6-71.67-130.53-69.37-39.55,1.55-76.63,9.94-113.37,24.46-47.95,18.95-100.85,33.98-145.08,60.29-50.21,29.87-84.9,77.5-132.65,110.06-64.55,44.01-127.98,16.43-189.74-18.75-47.86-27.27-95.32-54.39-146.51-75.13C167.03,487.02,84.12,473.78,0,467.77v-22.43Z"/>
  <path class="cls-1" d="M0,470.42c83.65,6.01,166.08,19.19,244.28,50.71,51.05,20.58,98.43,47.47,146.23,74.47,61.98,35,125.35,62.28,190.03,18.49,47.86-32.41,82.79-79.86,133.08-109.59,44.32-26.2,97.22-41.02,145.17-59.96,36.81-14.55,73.95-23.07,113.59-24.64,58.98-2.33,93.79,26.4,130.78,69.43,33.38,38.83,69.35,89.03,125.77,90.52,36.93,.98,74.4-15.34,107.33-30.32,47.38-21.55,92.53-47.69,138.34-72.29,45.63-24.51,92.84-51,143.47-63.62,35.18-8.77,69.94-5.3,104.88,3.1,66.83,16.06,127.2,46.32,197.06,49.17v18.49c-73.07-2.89-139.47-30.63-210.31-45.12-36.03-7.37-71.6-11.08-107.6-1.68-49.3,12.88-95.04,38.79-139.42,63.08-43.86,24.01-87.13,49.47-132.77,70.03-30.53,13.75-64.79,27.78-98.86,27.52-57.94-.44-95.98-51.25-131-90.65-38.15-42.92-74.43-73.35-134.29-70.78-40.86,1.75-78.67,11.6-116.56,26.5-48.69,19.15-102.43,32.17-147.94,57.85-50.88,28.71-88.16,74.91-137.67,105.09-64.07,39.06-126.13,15.33-187.81-16.55-47.09-24.33-93.57-49.11-143.18-68.11C157.8,512.91,79.54,500.42,0,494.69v-24.28Z"/>
  <path class="cls-1" d="M0,498.37c78.84,5.65,156.39,17.97,230.6,46.12,49.34,18.71,95.64,43.11,142.56,67.02,61.86,31.51,123.83,54.67,187.95,16.06,49.7-29.93,87.37-75.81,138.4-104.27,45.67-25.47,99.44-38.23,148.18-57.38,38.02-14.94,75.95-24.96,116.96-26.74,59.98-2.61,96.46,28.02,134.79,70.9,35.22,39.4,73.54,90.36,131.61,90.81,33.94,.27,68.04-13.66,98.45-27.38,45.31-20.44,88.26-45.78,131.78-69.67,44.08-24.19,89.52-49.98,138.52-62.76,36.04-9.4,71.75-5.61,107.85,1.59,71.46,14.25,138.75,41.54,212.34,44.4v17.92c-77.68-2.49-151.18-26.55-227.36-39.05-36.57-6-73.46-10.28-109.78-.9-46.82,12.09-90.06,36.96-131.93,60.41-64.84,36.33-142.18,94.17-219.93,93.37-59.08-.61-99.43-52.5-136.19-92.01-39.67-42.65-77.71-74.71-138.59-71.8-42.08,2.01-80.85,13.17-119.88,28.36-49.2,19.14-103.17,30.15-150.08,54.06-52.17,26.59-92.58,70.2-143.63,98.22-64.14,35.2-125.64,16.24-188.38-12.46-45.49-20.81-90.34-42.72-137.72-59.06C146.25,539.86,74,528.57,0,523.67v-25.3Z"/>
  <path class="cls-1" d="M0,528.38c73.04,4.74,144.38,15.74,213.88,39.32,46.98,15.94,91.53,37.3,136.73,57.52,62.84,28.11,124.29,46.28,188.38,11.75,51.31-27.64,92.24-70.8,144.64-97.03,47.16-23.6,101.18-34.3,150.48-53.44,39.23-15.23,78.16-26.6,120.45-28.66,61.05-2.97,99.41,29.37,139.34,71.98,37.06,39.55,77.8,91.61,137.09,92.25,77.16,.84,153.64-56.49,217.9-92.64,41.43-23.31,84.24-48,130.63-59.95,36.38-9.37,73.52-5.02,110.17,.76,77.11,12.16,151.79,35.6,230.31,38v17.35c-83.39-1.76-164.36-21.86-246.82-32.12-37.1-4.61-75.68-9.3-112.36,.02-44,11.18-84.39,34.88-123.39,57.37-61,35.19-132.7,89.64-206.52,88.57-60.48-.88-103.38-53.83-142.13-93.59-41.37-42.45-81.53-76.27-143.62-73-43.42,2.29-83.4,14.73-123.68,30.26-49.96,19.26-104.16,28.23-152.78,50.06-53.75,24.13-97.49,64.8-150.27,90.39-63.56,30.81-124.97,16.88-188.08-7.75-43.5-16.97-86.36-35.31-131.09-48.95C134.18,567.02,67.81,557.68,0,553.95v-25.57Z"/>
  <path class="cls-1" d="M0,559.65c66.63,3.5,131.89,12.44,195.98,31.45,44.21,13.11,86.69,30.77,129.78,47.01,63.12,23.78,124.59,36.82,187.97,6.83,53.11-25.12,97.48-65.23,151.54-88.88,48.96-21.41,103.19-30.03,153.32-49.3,40.54-15.58,80.73-28.27,124.42-30.62,62.32-3.35,102.9,30.82,144.6,73.23,39.14,39.81,82.53,92.96,143.28,93.89,73.06,1.13,143.66-52.67,203.92-87.64,38.44-22.31,78.28-45.78,121.74-56.78,36.75-9.31,75.66-4.57,112.86-.2,83.68,9.82,166.05,29.17,250.58,30.77v16.78c-89.71-.83-178.14-16.92-267.31-24.81-37.65-3.33-78.01-8.24-115.11,1-41.04,10.22-78.43,32.69-114.4,54.17-56.96,34.01-122.67,84.87-192.37,83.5-62.02-1.22-107.54-55.18-148.4-95.25-43.13-42.29-85.58-77.92-148.97-74.26-44.85,2.59-86.04,16.36-127.69,32.19-50.94,19.36-105.24,26.45-155.72,45.97-55.51,21.46-102.59,59.04-157.2,82.16-62.5,26.46-124.49,17.09-187.42-2.77-41.27-13.03-82-27.61-123.96-38.38C121.81,594.38,61.45,587.2,0,584.79,0,574.73,0,569.68,0,559.65Z"/>
  <path class="cls-1" d="M0,591.36c105.09,3.72,200.21,29.47,300.1,59.33,62.84,18.79,125.03,27.29,187.28,1.71,55-22.61,102.77-59.52,158.67-80.4,50.88-19.01,105.18-25.7,156.35-45.09,41.94-15.9,83.39-29.95,128.55-32.6,63.66-3.74,106.61,32.27,150.11,74.53,41.31,40.13,87.38,94.31,149.74,95.6,68.83,1.43,133.26-48.65,189.36-82.42,35.33-21.27,72.08-43.46,112.49-53.49,37.2-9.23,77.92-4.29,115.69-1.21,90.61,7.4,180.59,22.64,271.68,23.26v16.22c-96.11,.14-191.62-12.05-287.45-17.64-38.23-2.23-80.19-7.21-117.79,1.96-38.14,9.3-72.57,30.52-105.57,51.02-53,32.93-112.76,80.14-178.47,78.52-63.58-1.57-111.64-56.5-154.56-96.88-44.8-42.14-89.56-79.53-154.21-75.5-46.25,2.89-88.65,17.97-131.63,34.1-23.36,8.77-46.9,17.06-71.22,22.81-29.15,6.89-58.75,9.74-87.36,19.09-57.35,18.74-107.61,53.25-164.03,74.06-61.35,22.63-124.41,16.88-186.88,2.12C187.07,638.32,97,617.4,0,615.44v-24.08Z"/>
  <path class="cls-1" d="M0,622.7c94.64,1.46,183.21,20.89,275.11,40.82,62.37,13.53,125.7,18.58,186.82-3.24,56.85-20.3,107.82-54.1,165.61-72.19,28.68-8.98,58.32-11.49,87.47-18.21,24.51-5.65,48.23-13.93,71.75-22.73,43.29-16.21,85.96-31.6,132.54-34.56,64.94-4.12,110.24,33.68,155.41,75.79,43.4,40.46,92.05,95.6,155.98,97.25,64.81,1.67,123.18-44.68,175.27-77.37,32.31-20.28,66.06-41.21,103.53-50.3,37.73-9.15,80.03-4.17,118.41-2.18,97.37,5.05,194.5,16.34,292.1,15.98v15.65c-102.06,.95-203.92-7.6-305.87-11.07-38.82-1.32-82.06-6.29-120.2,2.82-35.5,8.48-67.2,28.51-97.48,48.14-49.42,32.05-103.64,75.78-165.81,73.99-65-1.87-115.39-57.71-160.18-98.36-46.26-41.98-93.16-81.02-158.92-76.62-47.53,3.18-91.02,19.56-135.22,35.99-23.99,8.92-48.25,17.17-73.33,22.48-29.15,6.18-58.84,7.64-87.7,15.51-59.13,16.12-112.26,47.78-170.37,66.65-60.62,19.68-124.78,16.31-186.95,6.56C171.73,659.97,87.68,645.2,0,645.15v-22.45Z"/>
  <path class="cls-1" d="M0,652.87c85.44-.37,167.96,12.78,252.28,24.27,62.2,8.48,126.58,11.43,187.14-7.63,58.53-18.42,112.36-49.38,171.94-64.84,28.91-7.5,58.59-8.61,87.74-14.59,25.27-5.19,49.7-13.43,73.85-22.39,44.5-16.51,88.25-33.22,136.09-36.48,66.02-4.5,113.44,34.95,160.04,76.89,45.24,40.71,96.21,96.78,161.54,98.72,61.33,1.82,114.19-41.04,162.74-72.89,29.61-19.43,60.65-39.15,95.51-47.44,38.28-9.1,81.8-4.13,120.77-3.02,103.44,2.96,206.82,10.59,310.34,9.48v15.08c-107.08,1.37-214.13-3.9-321.18-5.62-39.35-.63-83.47-5.59-122.11,3.5-33.33,7.84-62.73,26.78-90.74,45.74-46.48,31.46-96.02,72.08-155.36,70.26-66.12-2.03-118.53-58.78-164.83-99.57-47.4-41.77-96.09-82.27-162.69-77.52-48.61,3.46-92.98,21.1-138.19,37.81-24.52,9.06-49.38,17.27-75.11,22.12-29.1,5.49-58.71,5.66-87.67,12.24-60.71,13.79-116.27,43.06-175.83,60.46-60.79,17.75-125.62,15.49-188.14,10.2C158.63,680.89,79.99,671.96,0,673.19v-20.32Z"/>
  <path class="cls-1" d="M0,681.05c78.09-1.43,155.28,5.9,233.09,11.03,62.79,4.15,127.74,6.32,188.78-11.07,59.93-17.08,116.1-45.75,177.22-58.94,28.95-6.25,58.51-6.06,87.56-11.35,25.9-4.71,50.91-12.91,75.55-22.01,45.46-16.79,90.03-34.79,138.9-38.33,66.77-4.84,115.91,36.04,163.56,77.73,46.64,40.8,99.58,97.82,165.95,99.86,58.68,1.81,107.06-38,152.83-69.36,27.45-18.81,56.28-37.46,89.09-45.15,38.76-9.09,83.07-4.13,122.55-3.65,108.29,1.3,216.6,5.67,324.91,4.29v14.51c-110.66,1.15-221.34-1.25-332-1.76-39.73-.18-84.3-5.2-123.29,3.92-31.81,7.44-59.55,25.48-85.94,44.03-44.45,31.25-90.61,69.38-148.11,67.68-66.79-1.97-120.82-59.66-168.06-100.4-48.1-41.48-98.06-83.17-165.09-78.11-49.39,3.73-94.33,22.58-140.25,39.54-24.87,9.19-50.18,17.35-76.39,21.71-28.91,4.81-58.24,3.84-87.09,9.41-61.96,11.95-119.38,39.46-180.03,56.04-62.01,16.95-127.2,14.54-190.94,12.68C148.5,701.19,74.37,697.34,0,698.8,0,692,0,688.43,0,681.05Z"/>
  <path class="cls-1" d="M0,706.44c73.04-1.21,146,1.24,219.02,2.45,64.34,1.07,129.63,3.78,192.27-13.17,60.9-16.48,118.77-43.58,181.05-55.07,28.77-5.31,57.95-4.02,86.75-8.61,26.33-4.2,51.73-12.34,76.68-21.57,46.07-17.04,91.11-36.28,140.67-40.08,67.07-5.15,117.3,36.86,165.51,78.21,47.41,40.67,101.86,98.68,168.74,100.56,57.16,1.61,102.57-35.89,146.61-67.16,26.04-18.49,53.41-36.29,84.91-43.66,39.07-9.14,83.68-4.08,123.48-3.99,111.43,.26,222.88,1.84,334.31,.94v13.94c-112.31,0-224.63,0-336.94,0-39.9,0-84.38-5.22-123.53,4-31.13,7.33-58.06,24.74-83.69,43.23-43.62,31.46-88.14,67.99-145.05,66.63-66.82-1.6-121.97-60.29-169.46-100.71-48.23-41.05-98.75-83.6-165.71-78.28-49.78,3.95-94.9,23.98-141.12,41.16-25.02,9.3-50.55,17.39-77.04,21.24-28.52,4.14-57.3,2.26-85.8,7.17-62.75,10.82-121.34,37.36-182.56,53.92-64.32,17.4-129.82,13.64-195.82,13.64-71.1,0-142.19,0-213.29,0v-14.79Z"/>
  <path class="cls-1" d="M0,728.23c71.27,.43,142.55-.11,213.82-.35,66.2-.22,131.33,3.4,195.9-13.84,60.91-16.26,119.33-41.91,181.66-52.78,28.66-5,57.62-3.41,86.31-7.59,26.41-3.85,51.88-11.9,76.82-21.19,46.09-17.17,90.98-37.04,140.62-41.04,66.53-5.35,117.75,37.9,166.05,78.16,47.61,39.68,103.73,98.61,170.04,100.43,56.55,1.55,101.85-35.56,145.4-66.49,25.82-18.33,52.9-35.72,84.07-43.13,39.24-9.33,83.84-4.2,123.85-4.18,111.82,.06,223.63,.6,335.45,.24v13.37c-109.82,.76-219.64-.85-329.45-1.2-40.01-.13-84.46-5.07-123.7,4.28-31.46,7.49-59.09,24.76-85.52,42.77-44.01,29.99-91.02,67.73-147.35,65.95-65.98-2.09-124.35-60.68-173.02-99.04-49.08-38.69-102.13-82.59-168.21-77.21-49.12,4-93.3,23.52-138.85,40.61-24.65,9.25-49.83,17.17-75.96,20.98-28.84,4.21-57.96,3.03-86.79,7.97-61.17,10.48-118.99,34.07-178.96,49.31-64.92,16.5-129.76,13.09-196.15,13.95C144.02,739.15,72.02,740.98,0,740v-11.77Z"/>
  <path class="cls-1" d="M0,746.24c72.69,1.16,145.33-1.58,217.99-3.05,66.39-1.35,131.29,1.96,196.34-13.87,59.22-14.41,116.51-36.6,176.81-46.56,28.84-4.76,57.98-3.76,86.81-7.96,25.88-3.77,50.8-11.6,75.21-20.8,45.09-17.01,88.7-36.29,137.36-40.25,66.04-5.39,120.43,38.53,170.31,76.26,49.73,37.62,109.64,95.6,175.79,97.77,56.45,1.85,104.6-36.01,149.19-65.48,26.93-17.8,55.04-34.95,86.78-42.46,39.16-9.26,83.31-4.45,123.22-4.22,108.06,.61,216.13,2.92,324.2,2.04v12.8c-104.39,.89-208.76-2.65-313.14-3.82-39.58-.44-82.98-5-121.86,3.96-32.41,7.47-61.46,24.38-89.42,41.8-45.98,28.66-96.17,66.35-153.18,64.47-66.95-2.21-129.68-58.63-181.77-95.03-51.65-36.09-108.62-79.54-174.91-74.16-47.69,3.87-90.15,22.68-134.26,39.51-23.87,9.11-48.27,16.74-73.62,20.42-28.68,4.16-57.75,3.3-86.48,7.66-58.57,8.88-114.76,28.33-172.49,41.03-65.22,14.35-130.44,11.26-196.75,13.55C148.09,752.42,74.11,756.85,0,755.6v-9.36Z"/>
  <path class="cls-1" d="M0,761.2c75.23,1.19,150.27-4.46,225.38-7.85,66.2-2.98,131.75-.05,197.05-13.23,56.59-11.42,111.92-28.83,169.2-36.82,55-7.68,105.76-7.12,158.44-27.4,43.35-16.69,84.93-35.16,131.86-38.94,66.68-5.37,125.52,37.49,178.6,72.46,53.99,35.58,118.71,90.68,186.54,92.85,57.6,1.84,109.21-35.53,156.36-63.69,28.74-17.16,58.53-33.87,91.48-41.29,38.61-8.69,81.38-4.31,120.64-3.69,101.49,1.61,202.94,6.02,304.46,5.21v12.24c-96.75,.6-193.37-5.17-290.07-7.52-38.69-.94-80.37-5.04-118.47,3.17-33.87,7.3-64.87,23.69-94.88,40.45-49.17,27.45-102.92,64.1-161.69,62.38-69.53-2.04-137.3-54.87-194.5-89.22-55.48-33.31-117.25-74.94-184.8-69.6-45.7,3.61-85.81,21.53-127.9,37.99-51.59,20.16-101.36,19.76-155.51,26.14-55.23,6.5-109.08,20.7-163.84,29.95-65.48,11.07-131.47,8.57-197.56,12.62C153.9,762.13,77.1,769.7,0,768.77v-7.57Z"/>
  <path class="cls-1" d="M0,773.92c78.62,.64,156.82-8.41,235.13-14.18,66.05-4.86,132.29-2.78,197.96-12.09,53.3-7.56,105.95-19.19,159.57-24.49,53.41-5.28,102.38-4.99,153.06-25.04,41.08-16.26,80.03-33.75,124.73-37.22,68.41-5.32,132.4,35.2,189.84,67.27,59.81,33.4,129.9,84.39,200.96,86.28,59.82,1.59,115.18-34.39,166.02-61.33,31.03-16.44,62.99-32.57,97.62-39.77,37.66-7.82,78.46-3.93,116.64-2.72,92.84,2.94,185.55,9.77,278.48,9.37v11.67c-87.62,.09-174.84-8.19-262.32-11.96-37.44-1.62-77.01-5.22-114.02,2.06-35.71,7.03-69.02,22.8-101.44,38.82-53.19,26.28-110.67,61.25-172.07,59.86-73.36-1.65-146.53-50.07-209.99-82.16-60.19-30.44-127.12-69.28-196.91-64-43.33,3.28-80.62,20.19-120.31,36.16-49.39,19.87-97.25,19.75-149.56,23.45-51.44,3.64-102.39,11.71-153.67,16.93-66.02,6.71-132.4,5.37-198.51,11.31C160.91,769.36,80.74,780.41,0,780.27v-6.35Z"/>
  <path class="cls-1" d="M0,785.21c82.56-.33,164.41-13.05,246.38-21.48,66.29-6.82,132.58-6.3,198.99-10.63,49.57-3.23,99.01-8.26,148.65-10.5,51.35-2.32,98.23-2.42,146.53-22.06,38.55-15.68,74.34-32.14,116.55-35.26,71.11-5.25,140.42,32.08,202.97,61.19,66.58,30.98,142.27,77.22,217.72,78.64,62.82,1.19,122.05-32.87,177.26-58.61,33.6-15.67,68.04-31.13,104.7-38.01,36.41-6.84,74.96-3.47,111.73-1.49,82.91,4.48,165.4,13.99,248.52,14.18v11.1c-77.76-.49-154.54-11.49-231.98-16.83-35.95-2.48-73.29-5.54-108.97,.78-37.8,6.7-73.59,21.79-108.6,37.04-57.64,25.11-118.91,58.05-183.49,57.11-78.05-1.14-156.7-44.8-227-74.42-65.4-27.55-137.41-63.01-210.25-57.81-40.81,2.91-74.92,18.76-112.04,34.18-46.86,19.46-92.81,19.71-142.87,20.36-47.56,.61-95.1,1.96-142.66,2.83-66.93,1.22-132.93,1.96-199.55,9.8C168.61,775.2,84.75,789.9,0,790.83v-5.62Z"/>
  <path class="cls-1" d="M0,795.88c86.75-1.52,172.47-18.01,258.3-29.22,66.97-8.75,132.66-10.92,200.07-9.03,45.73,1.28,91.43,3.36,137.17,4.2,48.78,.89,93.99,.51,139.5-18.79,35.81-15.19,68.37-30.45,107.91-33.19,74.52-5.15,148.92,28.56,216.92,54.72,73.68,28.34,154.99,69.68,235.5,70.55,66.23,.71,129.34-31.21,189.2-55.74,36.29-14.87,73.32-29.63,112.18-36.15,34.98-5.87,71.25-3.1,106.43-.13,72.47,6.11,143.93,18.5,216.83,19.26v10.53c-67.96-1-133.78-14.85-201.13-21.77-34.34-3.53-69.55-5.98-103.8-.54-39.97,6.34-78.27,20.76-115.88,35.23-62.14,23.92-127.14,54.79-195.11,54.31-83.12-.58-167.15-39.57-244.31-66.54-70.7-24.72-147.47-56.6-223.83-51.51-38.25,2.55-69.18,17.2-103.63,32.16-83.08,36.08-180.46,12.61-267.5,5.69C307.29,747.38,156.55,797.46,0,801.21v-5.33Z"/>
  <path class="cls-1" d="M0,806.74c157.96-4.72,312.45-65.68,471.14-44.3,84.72,11.41,176.27,39.7,258.48,3.07,33.12-14.75,62.44-28.77,99.42-31.15,78.24-5.03,157.27,25.06,230.62,48.36,80.55,25.59,167.25,62.28,252.97,62.6,69.69,.26,136.56-29.6,200.92-52.91,73.81-26.73,142.15-42.87,220.77-33.14,62.38,7.72,122.44,23.04,185.67,24.25v9.96c-59.16-1.35-113.82-18.01-171.84-26.47-78.01-11.37-148.22,6.52-221.79,31.76-66.32,22.75-134.87,51.73-206.11,51.66-88.08-.09-177.16-34.77-260.71-59.08-75.69-22.02-156.71-50.53-236.67-45.56-35.85,2.23-63.71,15.66-95.64,30.24-81.78,37.35-167.85,4.62-250.43-10.91-67.9-12.77-134-4.38-201.61,6.82C183.94,787.06,92.74,808.93,0,812.15v-5.4Z"/>
  <path class="cls-1" d="M0,818.6c94.68-3.69,187.67-27.37,280.67-43.74,67.41-11.86,134.67-22.94,202.11-6.15,80.2,19.97,160.32,57.51,242,19.14,30.67-14.41,56.97-27.2,91.65-29.29,81.79-4.92,164.9,21.97,243,42.63,86.65,22.92,178.25,55.51,268.81,55.39,72.85-.1,143.2-28.2,211.54-50.34,73.14-23.69,145.73-43.68,222.93-30.34,53.56,9.25,102.14,27.35,157.29,28.8v9.39c-52.4-1.49-95.87-20.68-146.18-30.58-76.41-15.04-151.24,6.79-223.88,29.29-69.84,21.64-141.6,49.12-215.66,49.33-92.44,.26-185.98-30.77-274.96-52.58-79.91-19.59-164.62-45.3-247.79-40.42-33.8,1.98-58.89,14.25-88.6,28.55-38.62,18.59-82.66,19.49-124.28,11.9-39.04-7.12-73.62-26.03-111.31-37.32-66.79-19.99-135.47-6.64-202.5,5.68C190.52,795.28,96.16,820.4,0,824.39v-5.79Z"/>
  <path class="cls-1" d="M0,832.27c97.79-4.19,193.68-31.02,289.42-49.42,66.31-12.74,137.26-28.81,202.93-5.22,36.42,13.08,68.34,35.13,106.68,43.26,40.18,8.51,84.62,7.57,121.93-10.94,28.64-14.21,52.37-25.85,85.21-27.74,84.65-4.86,171.18,19.67,252.99,38.03,91.49,20.53,187.18,49.86,281.67,49.51,75.35-.28,148.71-27.17,220.14-48.22,71.8-21.16,149.83-45.42,225.06-28.19,18.52,4.24,35.42,12.11,53.12,18.71,26.28,9.8,52.87,13.01,80.83,13.83v8.82c-27.06-.79-52.77-3.66-77.8-14.32-16.18-6.89-31.25-15.14-48.44-19.46-74.37-18.67-154.77,7.25-225.94,27.54-72.39,20.64-146.82,47.24-222.92,47.52-95.75,.35-192.81-27.94-285.84-47.6-82.95-17.53-170.67-41.44-256.2-36.56-32.24,1.84-55.1,13.05-83.06,27.22-36.45,18.47-81.37,19.45-120.59,10.45-38.04-8.73-68.02-32.92-103.68-47.1-64.82-25.78-137.49-7.99-203.21,4.99C195.69,806.48,98.81,834.5,0,838.69v-6.42Z"/>
  <path class="cls-1" d="M0,848.55c99.9-3.92,197.9-33.47,295.41-53.31,64.67-13.15,140.08-33.08,203.53-4.87,34.83,15.49,62.41,42.17,100.27,51.46,38.21,9.38,83.91,8.25,119.43-10.16,27.24-14.12,49.06-24.85,80.69-26.65,86.35-4.94,175.49,18.53,259.53,35.06,94.63,18.61,193.22,45.81,290.25,45.58,76.83-.18,152.52-26.65,225.84-46.77,70.26-19.28,154-47.38,227.17-26.95,15.79,4.41,28.62,13.02,43.05,20.32,23.54,11.91,48.77,14.1,74.85,14.79v8.25c-25.65-.6-51.02-2.27-73.81-14.96-13.55-7.55-25.15-16.32-40.29-20.76-72.53-21.28-158.21,8.02-227.97,26.78-73.64,19.81-150.03,46.38-227.08,46.42-97.54,.06-196.83-26.66-292.14-44.7-84.41-15.98-174.33-39.46-260.91-34.45-31.33,1.81-52.68,12.25-79.57,26.38-35.02,18.41-81.45,19.67-119.16,10.25-37.9-9.47-64.11-37.52-98.57-53.64-62.57-29.28-139.77-8.25-203.68,4.93C198.93,821.76,100.39,852.24,0,855.79v-7.23Z"/>
  <path class="cls-1" d="M0,868.24c100.63-3.04,199.55-34.31,297.57-54.71,63.1-13.14,142.06-35,203.78-5.17,34.27,16.57,59.36,45.81,97.45,55.25,37.51,9.3,84.48,7.56,119.31-10.65,26.75-13.99,47.81-24.23,78.97-26.13,86.37-5.26,177.18,18.8,261.5,34.17,95.6,17.43,195.39,43.87,293.06,44.14,76.95,.22,154.08-26.75,227.71-46.14,69.44-18.29,156.74-48.6,228.82-26.82,14.73,4.45,25.31,13.31,38.2,21.07,22.3,13.41,48.22,14.51,73.64,14.99v7.69c-25.54-.59-51.16-2.01-73.76-14.96-13.25-7.59-24.41-16.34-39.33-20.76-72.21-21.38-158.74,8.47-228.38,26.6-73.49,19.13-150.66,45.96-227.39,45.75-97.31-.26-196.86-26.55-292.14-43.78-83.94-15.18-174.86-39.43-260.82-33.94-31.07,1.99-52.95,12.23-79.93,25.85-35.19,17.77-81.46,19.82-119.19,10.44-38.13-9.47-64.05-38.15-98.57-54.52-62.17-29.47-140.14-8-203.68,5.1C198.93,841.9,100.38,872.37,0,875.92v-7.69Z"/>
  <path class="cls-1" d="M0,889.41c99.49-4.08,197.05-33,294.22-52.54,64.35-12.94,140.3-33.14,203.41-4.92,35.3,15.78,63.14,43.22,101.6,52.55,38.65,9.37,83.77,6.59,120.21-9.98,27.9-12.69,51.52-22.93,82.85-25,84.94-5.61,175.16,18.28,258.18,32.99,94.17,16.68,192.55,42.25,288.64,42.49,76.13,.19,152.97-25.9,226.06-44.38,70.3-17.77,154.88-45.96,227.61-25.81,15.54,4.3,28.04,12.77,42.21,19.98,23.5,11.96,48.98,13.91,75.01,14.62v7.12c-26.4-.75-52.01-2.94-76.13-14.32-14.79-6.98-28.15-15.24-44.15-19.45-73.12-19.27-156.44,7.68-227.21,25.21-72.81,18.04-149.29,43.52-225.01,43.33-95.18-.23-192.6-25.19-285.93-41.49-82.41-14.4-171.85-37.78-256.11-32.24-31.61,2.08-56.42,12.21-84.96,24.38-37.23,15.88-82.07,18.97-121.31,9.7-38.76-9.16-67.86-35.75-103.69-51.2-63.51-27.39-138.55-7.97-203.21,4.8C195.68,864.32,98.81,892.34,0,896.53v-7.12Z"/>
  <path class="cls-1" d="M0,910.59c97.1-4.13,192.33-30.21,287.47-48.15,65.47-12.35,138.2-29.56,202.75-4.5,37.25,14.46,69.01,39.3,108.67,47.97,40.75,8.91,85.37,5.22,124.51-9.06,30.2-11.02,57.56-20.84,90.13-22.87,82.65-5.17,169.85,16.65,250.82,30.31,91.22,15.38,186.14,38.76,279.05,38.98,74.73,.18,150.18-23.71,222.29-40.7,71.76-16.91,152.5-40.9,226.41-23.68,17.19,4,32.45,11.75,48.73,18.21,25.55,10.14,51.83,12.71,79.18,13.49v6.55c-27.84-.77-54.66-3.43-80.92-13.02-17.07-6.23-33.3-13.66-51.16-17.55-74.23-16.2-153.86,6.3-226.04,22.84-71.73,16.44-146.59,39.43-220.78,39.25-91.66-.22-185.17-22.71-275.23-37.6-80.2-13.26-166.1-34.15-247.88-29.24-33.18,1.99-61.83,11.59-92.94,22.06-40.1,13.49-84.86,17.38-126.39,8.72-40.2-8.38-73.3-32.3-111.33-46.24-64.99-23.82-136.71-7.75-202.5,4.33C190.51,888.03,96.16,913.15,0,917.14v-6.55Z"/>
  <path class="cls-1" d="M0,931.76c93.79-3.49,185.96-26.32,278.16-42.11,66.35-11.36,136.08-24.71,201.88-3.93,40,12.63,76.24,34.34,117.92,41.96,43.44,7.94,88.98,3.78,131.36-7.93,33.38-9.22,65.09-18.16,99.96-20.01,79.61-4.21,162.19,14.25,240.42,26.5,87.12,13.65,177.06,33.88,265.57,34.09,72.86,.18,146.15-20.54,216.93-35.6,73.06-15.54,150.37-34.45,225.21-20.71,19.6,3.6,38.09,10.32,57.14,15.93,28.05,8.27,56.25,11.08,85.44,11.79v5.98c-52.11-1.17-96.82-17.94-147.27-26.46-75.04-12.67-151.49,4.69-224.87,19.76-70.34,14.44-142.93,34.14-215.2,33.96-87.1-.21-175.44-19.43-261.24-32.52-77.35-11.8-158.45-29.16-237.08-25.28-35.69,1.76-68.68,10.39-103.08,19.1-43.34,10.97-89.37,15.18-133.64,7.58-42.38-7.28-79.94-28.02-120.82-40.07-66.05-19.48-135.11-7.25-201.61,3.76C183.93,912.67,92.74,934.53,0,937.75v-5.98Z"/>
  <path class="cls-1" d="M0,952.94c89.89-2.43,178.48-21.72,267.16-34.97,66.69-9.97,134.42-19.42,200.87-3.28,43.3,10.52,84.24,28.7,128.62,35.02,46.47,6.62,94.08,2.5,139.9-6.66,37.16-7.43,73.45-15.13,111.49-16.65,75.91-3.03,153.14,11.39,228.01,21.95,82.21,11.59,166.25,28.08,249.52,28.28,70.68,.17,141.36-16.76,210.51-29.53,73.88-13.65,148.8-27.38,224.01-17.18,54.16,7.34,104.66,22.09,159.91,23.04v5.41c-56.52-.84-109.01-14.84-164.6-21.76-75.2-9.36-149.72,3.14-223.7,16.22-68.69,12.15-138.67,28.05-208.76,27.89-81.85-.19-164.29-15.67-245.16-26.7-73.93-10.08-149.76-23.43-224.64-20.71-38.94,1.42-76.41,8.76-114.6,15.74-46.72,8.54-94.99,12.56-142.26,6.33-45.15-5.96-87.29-23.19-131.5-33.15-66.51-14.97-133.91-6.45-200.6,3.1C176.45,937.88,88.83,956.23,0,958.35v-5.41Z"/>
  <path class="cls-1" d="M0,974.12c151.06-2.13,304.24-56.44,455.11-29.86,46.92,8.27,92.5,22.74,140.04,27.6,49.65,5.08,99.99,1.5,149.29-5.33,41.26-5.72,82.11-11.95,123.85-13.04,71.72-1.88,143.57,8.38,214.6,17.02,76.85,9.35,154.61,21.85,232.19,22,68.31,.13,136.26-12.73,203.56-23,74.08-11.3,147.84-20.48,222.81-13.37,59.94,5.69,118.04,17.47,178.55,17.98v4.84c-61.79-.4-121.55-11.51-182.85-16.82-74.85-6.48-148.48,1.77-222.54,12.49-66.86,9.68-134.19,21.61-201.95,21.49-76.25-.14-152.58-11.73-228.18-20.55-70.11-8.18-140.77-17.52-211.5-15.88-42.61,.99-84.5,6.84-126.71,12.21-50.06,6.37-101.1,9.74-151.47,5.03-48.31-4.52-94.91-18.14-142.68-25.89C301.77,926.65,150.42,977.3,0,978.96v-4.84Z"/>
  <path class="cls-1" d="M0,995.29c147.75-.1,294.29-39.06,442.21-21.49,50.6,6.01,100.52,16.83,151.45,20.19,52.79,3.49,106.05,.81,158.67-4.01,45.38-4.16,90.59-8.82,136.2-9.44,67.34-.92,134.26,5.5,201.21,12.1,71.39,7.04,143.04,15.65,214.87,15.74,65.92,.08,131.27-8.79,196.62-16.47,73.87-8.69,147.23-14.15,221.61-9.56,65.91,4.06,130.98,12.91,197.16,12.94v4.27c-67.32,.07-133.71-8.21-200.8-11.95-74.24-4.15-147.57,.67-221.37,8.82-64.95,7.17-129.82,15.26-195.27,15.2-70.7-.07-141.18-7.94-211.49-14.51-113.84-10.64-223.44-11.89-337.21-2.4-53.25,4.44-107.08,6.92-160.48,3.75-51.61-3.07-102.36-13.17-153.69-18.74C292.53,963.75,146.97,999.84,0,999.57v-4.27Z"/>
  <path class="cls-1" d="M0,1016.47c143.77,1.52,286.27-24.11,430.24-13.72,54.09,3.9,107.89,11.3,162.12,13.27,55.66,2.02,111.59,.33,167.17-2.75,112.83-6.24,223.71-6.71,336.53,1.47,66.25,4.8,132.41,9.94,198.88,9.94,63.66,0,126.81-5.23,190.22-10.44,73.47-6.03,146.71-8.69,220.41-6.04,71.55,2.57,142.77,8.68,214.43,8.26v3.71c-72.56,.48-144.74-5.18-217.21-7.51-73.6-2.37-146.8-.1-220.2,5.48-129.7,9.84-255.75,9.24-385.51,.45-112.64-7.63-223.73-6.92-336.4-1.28-56.05,2.8-112.4,4.32-168.51,2.54-54.78-1.74-109.19-8.58-163.86-12.14C285.04,998.38,143.08,1021.9,0,1020.18v-3.71Z"/>
  <path class="cls-1" d="M0,1037.65c140.15,2.33,279.88-12.33,420.14-7.16,115.35,4.26,229.77,9.01,345.27,5.68,112.13-3.23,223.87-4.51,335.97,.54,123.86,5.58,246.55,5.7,370.4-.28,149.61-7.23,298.63,2.56,448.22,1.22v3.14c-150.09,1.36-299.78-7.65-449.89-1.09-234.78,10.26-469.09-6.2-703.98-.18-116.08,2.98-231.31-1.28-347.27-5.06C279.06,1029.9,139.69,1043.15,0,1040.78v-3.14Z"/>
  <path class="cls-1" d="M0,1058.82c137.59,2,275.2-4.15,412.82-2.41,118.86,1.5,237.59,3.35,356.48,2.06,231.08-2.5,462.09,4.51,693.13-.12,152.53-3.05,305.03,1.66,457.57,.46v2.57c-152.79,1.13-305.57-3.01-458.36-.39-230.68,3.95-461.33-1.98-692.03,.13-119.19,1.09-238.26-.47-357.43-1.73C274.77,1057.96,137.37,1063.26,0,1061.39v-2.57Z"/>
  <path class="cls-1" d="M0,1080c486.14,.88,972.3,.53,1458.44-.02,153.85-.18,307.7,.18,461.56,.02v2H0v-2Z"/>
</svg>