<?xml version="1.0" encoding="UTF-8"?>
<svg id="Layer_1" data-name="Layer 1" xmlns="http://www.w3.org/2000/svg" viewBox="0 0 800 800">
  <path d="M399.98,0C179.1,0-.05,183.63-.05,410.11-.05,591.31,114.56,745.04,273.54,799.27c19.97,3.79,26.43-8.92,26.43-19.72v-76.35c-111.27,24.81-134.44-48.39-134.44-48.39-18.2-47.4-44.44-60.01-44.44-60.01-36.3-25.46,2.77-24.91,2.77-24.91,40.17,2.87,61.3,42.28,61.3,42.28,35.67,62.68,93.57,44.57,116.41,34.07,3.57-26.49,13.93-44.6,25.4-54.82-88.84-10.42-182.24-45.59-182.24-202.7,0-44.8,15.63-81.37,41.2-110.08-4.13-10.36-17.83-52.08,3.9-108.54,0,0,33.6-11,110.04,42.04,31.9-9.09,66.1-13.64,100.11-13.81,34,.17,68.24,4.72,100.21,13.81,76.37-53.04,109.91-42.04,109.91-42.04,21.77,56.49,8.07,98.22,3.93,108.54,25.67,28.71,41.17,65.31,41.17,110.08,0,157.52-93.57,192.21-182.64,202.36,14.33,12.71,27.43,37.66,27.43,75.94v112.54c0,10.9,6.4,23.72,26.7,19.69,158.84-54.31,273.32-208,273.32-389.13C800,183.63,620.89,0,399.98,0Z"/>
</svg>