<?xml version="1.0" encoding="UTF-8"?>
<svg id="Layer_1" data-name="Layer 1" xmlns="http://www.w3.org/2000/svg" viewBox="0 0 800 800">
  <path d="M186.22,257.37H25.62c-7.13,0-12.9,5.78-12.9,12.9V786.21c0,7.13,5.78,12.9,12.9,12.9H186.22c7.13,0,12.9-5.78,12.9-12.9V270.27c0-7.13-5.78-12.9-12.9-12.9Z"/>
  <path d="M105.98,.88C47.54,.88,0,48.37,0,106.74s47.54,105.9,105.98,105.9,105.89-47.51,105.89-105.9c0-58.37-47.5-105.86-105.89-105.86Z"/>
  <path d="M594.72,244.54c-64.5,0-112.19,27.73-141.11,59.24v-33.51c0-7.13-5.78-12.9-12.9-12.9h-153.8c-7.13,0-12.9,5.78-12.9,12.9V786.21c0,7.13,5.78,12.9,12.9,12.9h160.25c7.13,0,12.9-5.78,12.9-12.9v-255.27c0-86.02,23.37-119.53,83.33-119.53,65.31,0,70.5,53.72,70.5,123.96v250.85c0,7.13,5.78,12.9,12.9,12.9h160.31c7.13,0,12.9-5.78,12.9-12.9V503.21c0-127.91-24.39-258.67-205.28-258.67Z"/>
</svg>